<svg width="17" height="14" viewBox="0 0 17 14" fill="none" xmlns="http://www.w3.org/2000/svg">
<path fill-rule="evenodd" clip-rule="evenodd" d="M3.38198 0.330394C4.15653 -0.0227433 5.02982 -0.0953802 5.85207 0.124941C6.25217 0.232147 6.48961 0.6434 6.3824 1.0435C6.2752 1.4436 5.86394 1.68104 5.46384 1.57383C4.97797 1.44364 4.46193 1.48656 4.00424 1.69523C3.54655 1.90391 3.17573 2.26532 2.95537 2.7175C2.73501 3.16968 2.67885 3.68445 2.79652 4.1735C2.91419 4.66256 3.19835 5.09544 3.60027 5.3979C3.81832 5.56199 3.93004 5.83157 3.89197 6.10179C3.85391 6.37202 3.67207 6.60024 3.41717 6.69771C2.90766 6.89253 2.4396 7.19344 2.04647 7.58657C1.91403 7.71902 1.79208 7.85993 1.68113 8.00805C1.44996 8.31668 1.46504 8.57522 1.5867 8.80673C1.73035 9.08011 2.06045 9.36354 2.52736 9.51042C2.92249 9.63471 3.14204 10.0558 3.01774 10.4509C2.89345 10.846 2.47238 11.0656 2.07725 10.9413C1.3109 10.7002 0.621837 10.1952 0.25887 9.5045C-0.126094 8.77193 -0.105113 7.89073 0.480577 7.1088C0.634052 6.9039 0.802717 6.70901 0.985814 6.52591C1.26812 6.24361 1.57839 5.99568 1.9101 5.78482C1.6431 5.40755 1.44785 4.9804 1.33814 4.52439C1.13901 3.69675 1.23405 2.82562 1.60697 2.06039C1.97988 1.29516 2.60743 0.683531 3.38198 0.330394ZM12.9754 1.69523C12.5178 1.48656 12.0017 1.44364 11.5158 1.57383C11.1157 1.68104 10.7045 1.4436 10.5973 1.0435C10.4901 0.6434 10.7275 0.232147 11.1276 0.124941C11.9499 -0.0953802 12.8232 -0.0227433 13.5977 0.330394C14.3723 0.683531 14.9998 1.29516 15.3727 2.06039C15.7456 2.82562 15.8407 3.69675 15.6416 4.52439C15.5318 4.9804 15.3366 5.40755 15.0696 5.78482C15.4013 5.99568 15.7116 6.24361 15.9939 6.52591C16.177 6.70901 16.3456 6.9039 16.4991 7.1088C17.0848 7.89073 17.1058 8.77193 16.7208 9.5045C16.3579 10.1952 15.6688 10.7002 14.9024 10.9413C14.5073 11.0656 14.0862 10.846 13.9619 10.4509C13.8377 10.0558 14.0572 9.63471 14.4523 9.51042C14.9192 9.36354 15.2493 9.08011 15.393 8.80673C15.5147 8.57522 15.5297 8.31668 15.2986 8.00805C15.1876 7.85993 15.0657 7.71902 14.9332 7.58657C14.5401 7.19344 14.072 6.89253 13.5625 6.69771C13.3076 6.60024 13.1258 6.37202 13.0877 6.10179C13.0497 5.83157 13.1614 5.56199 13.3794 5.3979C13.7813 5.09544 14.0655 4.66256 14.1832 4.1735C14.3008 3.68445 14.2447 3.16968 14.0243 2.7175C13.804 2.26533 13.4331 1.90391 12.9754 1.69523ZM8.48994 3C7.29333 3 6.32328 3.97005 6.32328 5.16667C6.32328 6.36329 7.29335 7.33337 8.48996 7.33337C9.68656 7.33337 10.6566 6.3633 10.6566 5.16667C10.6566 3.97005 9.68656 3 8.48994 3ZM10.9225 7.91031C11.6795 7.23859 12.1566 6.25833 12.1566 5.16667C12.1566 3.14162 10.515 1.5 8.48994 1.5C6.4649 1.5 4.82328 3.14162 4.82328 5.16667C4.82328 6.25834 5.30036 7.2386 6.0574 7.91031C5.54531 8.16768 5.07266 8.50701 4.6598 8.91988C4.4767 9.10298 4.30803 9.29787 4.15456 9.50276C3.81059 9.96199 3.64862 10.4738 3.67714 10.9903C3.70522 11.4989 3.91442 11.9542 4.21348 12.3218C4.802 13.0452 5.78879 13.5 6.82329 13.5H10.1566C11.1911 13.5 12.1779 13.0452 12.7664 12.3218C13.0655 11.9542 13.2747 11.4989 13.3028 10.9903C13.3313 10.4738 13.1693 9.96199 12.8254 9.50277C12.6719 9.29787 12.5032 9.10298 12.3201 8.91988C11.9073 8.50701 11.4346 8.16768 10.9225 7.91031ZM8.48996 8.83337C7.45119 8.83337 6.45497 9.24602 5.72046 9.98054C5.58801 10.113 5.46606 10.2539 5.35512 10.402C5.20244 10.6058 5.16755 10.7753 5.17485 10.9076C5.1826 11.0479 5.24194 11.2091 5.37704 11.3752C5.65686 11.7191 6.20094 12 6.82329 12H10.1566C10.779 12 11.3231 11.7191 11.6029 11.3752C11.738 11.2091 11.7973 11.0479 11.8051 10.9076C11.8124 10.7753 11.7775 10.6058 11.6248 10.402C11.5139 10.2539 11.3919 10.113 11.2595 9.98054C10.5249 9.24602 9.52872 8.83337 8.48996 8.83337Z" fill="#171717"/>
</svg>
