<svg width="30" height="30" viewBox="0 0 30 30" fill="none" xmlns="http://www.w3.org/2000/svg">
<circle cx="15" cy="15" r="15" fill="#5E30D0"/>
<path d="M22.5832 18.8576V10.308C22.5832 9.45803 21.889 8.82761 21.0461 8.89845H21.0036C19.5161 9.02595 17.2565 9.78386 15.9957 10.5772L15.8753 10.6551C15.6698 10.7826 15.3298 10.7826 15.1244 10.6551L14.9473 10.5489C13.6865 9.76261 11.434 9.01178 9.9465 8.89136C9.10359 8.82053 8.4165 9.45803 8.4165 10.3009V18.8576C8.4165 19.5376 8.969 20.1751 9.649 20.2601L9.85442 20.2884C11.3915 20.4939 13.7644 21.273 15.1244 22.0168L15.1528 22.0309C15.344 22.1372 15.6486 22.1372 15.8328 22.0309C17.1928 21.2801 19.5728 20.4939 21.1169 20.2884L21.3507 20.2601C22.0307 20.1751 22.5832 19.5376 22.5832 18.8576Z" stroke="white" stroke-width="1.3" stroke-linecap="round" stroke-linejoin="round"/>
<path d="M15.5 10.8887V21.5137" stroke="white" stroke-width="1.3" stroke-linecap="round" stroke-linejoin="round"/>
<path d="M12.4897 13.0137H10.896" stroke="white" stroke-width="1.3" stroke-linecap="round" stroke-linejoin="round"/>
<path d="M13.021 15.1387H10.896" stroke="white" stroke-width="1.3" stroke-linecap="round" stroke-linejoin="round"/>
</svg>
