<svg width="30" height="30" viewBox="0 0 30 30" fill="none" xmlns="http://www.w3.org/2000/svg">
<circle cx="15" cy="15" r="15" fill="#5E30D0"/>
<path fill-rule="evenodd" clip-rule="evenodd" d="M21.5964 7.67509C20.0318 6.16422 15.7015 8.11021 11.9243 12.0216C8.14716 15.933 6.35348 20.3285 7.91803 21.8394C9.48258 23.3503 13.8129 21.4043 17.5901 17.4929C21.3672 13.5815 23.1609 9.18595 21.5964 7.67509Z" stroke="white" stroke-width="1.6" stroke-linecap="round" stroke-linejoin="round"/>
<path fill-rule="evenodd" clip-rule="evenodd" d="M7.67503 7.91808C6.16416 9.48263 8.11016 13.8129 12.0215 17.5901C15.9329 21.3673 20.3285 23.161 21.8394 21.5964C23.3502 20.0319 21.4042 15.7015 17.4929 11.9244C13.5815 8.14722 9.1859 6.35353 7.67503 7.91808Z" stroke="white" stroke-width="1.6" stroke-linecap="round" stroke-linejoin="round"/>
<path d="M14.7653 14.7571L14.7573 14.7572" stroke="white" stroke-width="3" stroke-linecap="round" stroke-linejoin="round"/>
</svg>
