<svg width="30" height="30" viewBox="0 0 30 30" fill="none" xmlns="http://www.w3.org/2000/svg">
<circle cx="15" cy="15" r="15" fill="#5E30D0"/>
<path d="M19.0415 20.0546H16.2082L13.0561 22.1512C12.5886 22.4629 11.9582 22.13 11.9582 21.5633V20.0546C9.83317 20.0546 8.4165 18.6379 8.4165 16.5129V12.2629C8.4165 10.1379 9.83317 8.72119 11.9582 8.72119H19.0415C21.1665 8.72119 22.5832 10.1379 22.5832 12.2629V16.5129C22.5832 18.6379 21.1665 20.0546 19.0415 20.0546Z" stroke="white" stroke-width="1.25" stroke-miterlimit="10" stroke-linecap="round" stroke-linejoin="round"/>
<path d="M15.5 15.0466V14.8979C15.5 14.4162 15.7976 14.1612 16.0951 13.9558C16.3855 13.7575 16.6758 13.5025 16.6758 13.035C16.6758 12.3833 16.1517 11.8591 15.5 11.8591C14.8484 11.8591 14.3242 12.3833 14.3242 13.035" stroke="white" stroke-width="1.25" stroke-linecap="round" stroke-linejoin="round"/>
<path d="M15.497 16.7395H15.5034" stroke="white" stroke-width="1.25" stroke-linecap="round" stroke-linejoin="round"/>
</svg>
