<svg width="30" height="30" viewBox="0 0 30 30" fill="none" xmlns="http://www.w3.org/2000/svg">
<circle cx="15" cy="15" r="15" fill="#5E30D0"/>
<path d="M17.5427 10.9075L18.6002 13.0225C18.7427 13.315 19.1252 13.5925 19.4477 13.6525L21.3602 13.9675C22.5827 14.17 22.8677 15.055 21.9902 15.94L20.4977 17.4325C20.2502 17.68 20.1077 18.1675 20.1902 18.52L20.6177 20.365C20.9552 21.82 20.1752 22.39 18.8927 21.625L17.1002 20.56C16.7777 20.365 16.2377 20.365 15.9152 20.56L14.1227 21.625C12.8402 22.3825 12.0602 21.82 12.3977 20.365L12.8252 18.52C12.9077 18.175 12.7652 17.6875 12.5177 17.4325L11.0252 15.94C10.1477 15.0625 10.4327 14.1775 11.6552 13.9675L13.5677 13.6525C13.8902 13.6 14.2727 13.315 14.4152 13.0225L15.4727 10.9075C16.0352 9.76 16.9652 9.76 17.5427 10.9075Z" stroke="white" stroke-width="1.3" stroke-linecap="round" stroke-linejoin="round"/>
<path d="M12 10.75H7.5" stroke="white" stroke-width="1.3" stroke-linecap="round" stroke-linejoin="round"/>
<path d="M9.75 21.25H7.5" stroke="white" stroke-width="1.3" stroke-linecap="round" stroke-linejoin="round"/>
<path d="M8.25 16H7.5" stroke="white" stroke-width="1.3" stroke-linecap="round" stroke-linejoin="round"/>
</svg>
