<svg width="30" height="30" viewBox="0 0 30 30" fill="none" xmlns="http://www.w3.org/2000/svg">
<circle cx="15" cy="15" r="15" fill="#5E30D0"/>
<path d="M22.5 15.75V12.75C22.5 9 21 7.5 17.25 7.5H12.75C9 7.5 7.5 9 7.5 12.75V17.25C7.5 21 9 22.5 12.75 22.5H15.75" stroke="white" stroke-width="1.3" stroke-linecap="round" stroke-linejoin="round"/>
<path d="M11.4976 16.8676L13.2826 14.5501C13.5376 14.2201 14.0101 14.1601 14.3401 14.4151L15.7126 15.4951C16.0426 15.7501 16.5151 15.6901 16.7701 15.3676L18.5026 13.1326" stroke="white" stroke-width="1.3" stroke-linecap="round" stroke-linejoin="round"/>
<path d="M20.6099 17.865L20.8199 18.2924C20.9249 18.5024 21.1874 18.6975 21.4199 18.7425L21.7049 18.7875C22.5599 18.93 22.7624 19.56 22.1474 20.1825L21.8849 20.4449C21.7124 20.6249 21.6149 20.9699 21.6674 21.2099L21.7049 21.3675C21.9374 22.4025 21.3899 22.7999 20.4899 22.2599L20.2949 22.1474C20.0624 22.0124 19.6874 22.0124 19.4549 22.1474L19.2599 22.2599C18.3524 22.8074 17.8049 22.4025 18.0449 21.3675L18.0824 21.2099C18.1349 20.9699 18.0374 20.6249 17.8649 20.4449L17.6024 20.1825C16.9874 19.56 17.1899 18.93 18.0449 18.7875L18.3299 18.7425C18.5549 18.705 18.8249 18.5024 18.9299 18.2924L19.1399 17.865C19.5449 17.0475 20.2049 17.0475 20.6099 17.865Z" stroke="white" stroke-width="1.3" stroke-linecap="round" stroke-linejoin="round"/>
</svg>
