<svg width="31" height="28" viewBox="0 0 31 28" fill="none" xmlns="http://www.w3.org/2000/svg">
<ellipse cx="15.3184" cy="14" rx="15.3184" ry="14" fill="#5E30D0"/>
<path d="M18.6 18.0976H21.4C22.2837 18.0976 23 17.3987 23 16.5366V10.4574C23 9.84109 22.8162 9.23438 22.3729 8.79529C21.3357 7.76809 18.9733 6 15 6C11.0267 6 8.66434 7.76809 7.62715 8.79529C7.18379 9.23437 7 9.84109 7 10.4574V16.5366C7 17.3987 7.71634 18.0976 8.6 18.0976H11.4M17.8 22L19 14.1951H11L12.2 22L15 19.2683L17.8 22ZM17.8 22L11.4 15.7558M13.8 14.1952L18.0505 18.342M11.8 11.8537V10.6829C11.8 10.2519 12.1582 9.90244 12.6 9.90244H17.4C17.8418 9.90244 18.2 10.2519 18.2 10.6829V11.8537M20.6 14.1951H9.4" stroke="white" stroke-width="1.4" stroke-linecap="round" stroke-linejoin="round"/>
</svg>
