<svg width="30" height="30" viewBox="0 0 30 30" fill="none" xmlns="http://www.w3.org/2000/svg">
<circle cx="15" cy="15" r="15" fill="#5E30D0"/>
<path d="M15 20.0092C16.6569 20.0092 18 18.6307 18 16.9303C18 15.2298 16.6569 13.8513 15 13.8513C13.3431 13.8513 12 15.2298 12 16.9303C12 18.6307 13.3431 20.0092 15 20.0092Z" stroke="white" stroke-width="1.3" stroke-miterlimit="10" stroke-linecap="round" stroke-linejoin="round"/>
<path d="M13.8301 17.0073L14.3176 17.5076C14.4601 17.6539 14.6926 17.6539 14.8351 17.5153L16.1701 16.2529" stroke="white" stroke-width="1.3" stroke-linecap="round" stroke-linejoin="round"/>
<path d="M12.0001 22.9342H18.0001C21.0151 22.9342 21.5551 21.6949 21.7126 20.1862L22.2751 14.0283C22.4776 12.1502 21.9526 10.6184 18.7501 10.6184H11.2501C8.04761 10.6184 7.52261 12.1502 7.72511 14.0283L8.28761 20.1862C8.44511 21.6949 8.98511 22.9342 12.0001 22.9342Z" stroke="white" stroke-width="1.3" stroke-miterlimit="10" stroke-linecap="round" stroke-linejoin="round"/>
<path d="M12 10.6185V10.0027C12 8.64027 12 7.53955 14.4 7.53955H15.6C18 7.53955 18 8.64027 18 10.0027V10.6185" stroke="white" stroke-width="1.3" stroke-miterlimit="10" stroke-linecap="round" stroke-linejoin="round"/>
<path d="M22.2378 14.467C20.9403 15.4369 19.5003 16.1143 18.0078 16.4991" stroke="white" stroke-width="1.3" stroke-miterlimit="10" stroke-linecap="round" stroke-linejoin="round"/>
<path d="M7.96484 14.6749C9.21734 15.5524 10.5823 16.1759 11.9998 16.53" stroke="white" stroke-width="1.3" stroke-miterlimit="10" stroke-linecap="round" stroke-linejoin="round"/>
</svg>
