<svg width="30" height="30" viewBox="0 0 30 30" fill="none" xmlns="http://www.w3.org/2000/svg">
<circle cx="15" cy="15" r="15" fill="#5E30D0"/>
<path d="M9.19482 15.0389V18.6646C9.19482 19.9923 9.19482 19.9923 10.4848 20.8385L14.0323 22.8301C14.5648 23.1292 15.4348 23.1292 15.9673 22.8301L19.5148 20.8385C20.8048 19.9923 20.8048 19.9923 20.8048 18.6646V15.0389C20.8048 13.7112 20.8048 13.7112 19.5148 12.8649L15.9673 10.8734C15.4348 10.5743 14.5648 10.5743 14.0323 10.8734L10.4848 12.8649C9.19482 13.7112 9.19482 13.7112 9.19482 15.0389Z" stroke="white" stroke-width="1.3" stroke-linecap="round" stroke-linejoin="round"/>
<path d="M19.1255 12.5661V10.6475C19.1255 9.1885 18.3755 8.45898 16.8755 8.45898H13.1255C11.6255 8.45898 10.8755 9.1885 10.8755 10.6475V12.5151" stroke="white" stroke-width="1.3" stroke-linecap="round" stroke-linejoin="round"/>
<path d="M15.4733 15.0174L15.9008 15.6666C15.9683 15.7688 16.1183 15.8709 16.2308 15.9001L16.9958 16.0898C17.4683 16.2065 17.5958 16.6004 17.2883 16.9652L16.7858 17.5561C16.7108 17.6509 16.6508 17.8187 16.6583 17.9354L16.7033 18.7014C16.7333 19.1756 16.3883 19.4163 15.9383 19.2413L15.2033 18.9567C15.0908 18.913 14.9033 18.913 14.7908 18.9567L14.0558 19.2413C13.6058 19.4163 13.2608 19.1683 13.2908 18.7014L13.3358 17.9354C13.3433 17.8187 13.2833 17.6436 13.2083 17.5561L12.7058 16.9652C12.3983 16.6004 12.5258 16.2065 12.9983 16.0898L13.7633 15.9001C13.8833 15.8709 14.0333 15.7615 14.0933 15.6666L14.5208 15.0174C14.7908 14.6234 15.2108 14.6234 15.4733 15.0174Z" stroke="white" stroke-width="1.3" stroke-linecap="round" stroke-linejoin="round"/>
</svg>
