<svg width="30" height="30" viewBox="0 0 30 30" fill="none" xmlns="http://www.w3.org/2000/svg">
<circle cx="15" cy="15" r="15" fill="#5E30D0"/>
<path d="M22.4775 20.7475C22.4775 21.0175 22.4175 21.295 22.29 21.565C22.1625 21.835 21.9975 22.09 21.78 22.33C21.4125 22.735 21.0075 23.0275 20.55 23.215C20.1 23.4025 19.6125 23.5 19.0875 23.5C18.3225 23.5 17.505 23.32 16.6425 22.9525C15.78 22.585 14.9175 22.09 14.0625 21.4675C13.2 20.8375 12.3825 20.14 11.6025 19.3675C10.83 18.5875 10.1325 17.77 9.51 16.915C8.895 16.06 8.4 15.205 8.04 14.3575C7.68 13.5025 7.5 12.685 7.5 11.905C7.5 11.395 7.59 10.9075 7.77 10.4575C7.95 10 8.235 9.58 8.6325 9.205C9.1125 8.7325 9.6375 8.5 10.1925 8.5C10.4025 8.5 10.6125 8.545 10.8 8.635C10.995 8.725 11.1675 8.86 11.3025 9.055L13.0425 11.5075C13.1775 11.695 13.275 11.8675 13.3425 12.0325C13.41 12.19 13.4475 12.3475 13.4475 12.49C13.4475 12.67 13.395 12.85 13.29 13.0225C13.1925 13.195 13.05 13.375 12.87 13.555L12.3 14.1475C12.2175 14.23 12.18 14.3275 12.18 14.4475C12.18 14.5075 12.1875 14.56 12.2025 14.62C12.225 14.68 12.2475 14.725 12.2625 14.77C12.3975 15.0175 12.63 15.34 12.96 15.73C13.2975 16.12 13.6575 16.5175 14.0475 16.915C14.4525 17.3125 14.8425 17.68 15.24 18.0175C15.63 18.3475 15.9525 18.5725 16.2075 18.7075C16.245 18.7225 16.29 18.745 16.3425 18.7675C16.4025 18.79 16.4625 18.7975 16.53 18.7975C16.6575 18.7975 16.755 18.7525 16.8375 18.67L17.4075 18.1075C17.595 17.92 17.775 17.7775 17.9475 17.6875C18.12 17.5825 18.2925 17.53 18.48 17.53C18.6225 17.53 18.7725 17.56 18.9375 17.6275C19.1025 17.695 19.275 17.7925 19.4625 17.92L21.945 19.6825C22.14 19.8175 22.275 19.975 22.3575 20.1625C22.4325 20.35 22.4775 20.5375 22.4775 20.7475Z" stroke="white" stroke-width="1.3" stroke-miterlimit="10"/>
</svg>
