<svg width="30" height="30" viewBox="0 0 30 30" fill="none" xmlns="http://www.w3.org/2000/svg">
<circle cx="15" cy="15" r="15" fill="#5E30D0"/>
<path fill-rule="evenodd" clip-rule="evenodd" d="M9.89224 8.58039C10.6668 8.22726 11.5401 8.15462 12.3623 8.37494C12.7624 8.48215 12.9999 8.8934 12.8927 9.2935C12.7855 9.6936 12.3742 9.93104 11.9741 9.82383C11.4882 9.69364 10.9722 9.73656 10.5145 9.94523C10.0568 10.1539 9.68598 10.5153 9.46563 10.9675C9.24527 11.4197 9.1891 11.9344 9.30677 12.4235C9.42444 12.9126 9.7086 13.3454 10.1105 13.6479C10.3286 13.812 10.4403 14.0816 10.4022 14.3518C10.3642 14.622 10.1823 14.8502 9.92742 14.9477C9.41792 15.1425 8.94986 15.4434 8.55673 15.8366C8.42428 15.969 8.30233 16.1099 8.19139 16.2581C7.96022 16.5667 7.97529 16.8252 8.09695 17.0567C8.24061 17.3301 8.5707 17.6135 9.03762 17.7604C9.43274 17.8847 9.65229 18.3058 9.528 18.7009C9.4037 19.096 8.98263 19.3156 8.58751 19.1913C7.82115 18.9502 7.13209 18.4452 6.76912 17.7545C6.38416 17.0219 6.40514 16.1407 6.99083 15.3588C7.14431 15.1539 7.31297 14.959 7.49607 14.7759C7.77837 14.4936 8.08864 14.2457 8.42035 14.0348C8.15336 13.6576 7.95811 13.2304 7.84839 12.7744C7.64926 11.9468 7.7443 11.0756 8.11722 10.3104C8.49013 9.54516 9.11768 8.93353 9.89224 8.58039ZM19.4857 9.94523C19.028 9.73656 18.512 9.69364 18.0261 9.82383C17.626 9.93104 17.2148 9.6936 17.1075 9.2935C17.0003 8.8934 17.2378 8.48215 17.6379 8.37494C18.4601 8.15462 19.3334 8.22726 20.108 8.58039C20.8825 8.93353 21.5101 9.54516 21.883 10.3104C22.2559 11.0756 22.3509 11.9468 22.1518 12.7744C22.0421 13.2304 21.8468 13.6576 21.5798 14.0348C21.9116 14.2457 22.2218 14.4936 22.5041 14.7759C22.6872 14.959 22.8559 15.1539 23.0094 15.3588C23.5951 16.1407 23.616 17.0219 23.2311 17.7545C22.8681 18.4452 22.179 18.9502 21.4127 19.1913C21.0176 19.3156 20.5965 19.096 20.4722 18.7009C20.3479 18.3058 20.5675 17.8847 20.9626 17.7604C21.4295 17.6135 21.7596 17.3301 21.9033 17.0567C22.0249 16.8252 22.04 16.5667 21.8088 16.2581C21.6979 16.1099 21.5759 15.969 21.4435 15.8366C21.0503 15.4434 20.5823 15.1425 20.0728 14.9477C19.8179 14.8502 19.636 14.622 19.598 14.3518C19.5599 14.0816 19.6716 13.812 19.8897 13.6479C20.2916 13.3454 20.5758 12.9126 20.6934 12.4235C20.8111 11.9344 20.7549 11.4197 20.5346 10.9675C20.3142 10.5153 19.9434 10.1539 19.4857 9.94523ZM15.0002 11.25C13.8036 11.25 12.8335 12.2201 12.8335 13.4167C12.8335 14.6133 13.8036 15.5834 15.0002 15.5834C16.1968 15.5834 17.1669 14.6133 17.1669 13.4167C17.1669 12.2201 16.1968 11.25 15.0002 11.25ZM17.4328 16.1603C18.1898 15.4886 18.6669 14.5083 18.6669 13.4167C18.6669 11.3916 17.0252 9.75 15.0002 9.75C12.9752 9.75 11.3335 11.3916 11.3335 13.4167C11.3335 14.5083 11.8106 15.4886 12.5677 16.1603C12.0556 16.4177 11.5829 16.757 11.1701 17.1699C10.987 17.353 10.8183 17.5479 10.6648 17.7528C10.3208 18.212 10.1589 18.7238 10.1874 19.2403C10.2155 19.7489 10.4247 20.2042 10.7237 20.5718C11.3123 21.2952 12.299 21.75 13.3335 21.75H16.6669C17.7014 21.75 18.6882 21.2952 19.2767 20.5718C19.5758 20.2042 19.785 19.7489 19.813 19.2403C19.8416 18.7238 19.6796 18.212 19.3356 17.7528C19.1821 17.5479 19.0135 17.353 18.8304 17.1699C18.4175 16.757 17.9449 16.4177 17.4328 16.1603ZM15.0002 17.0834C13.9614 17.0834 12.9652 17.496 12.2307 18.2305C12.0983 18.363 11.9763 18.5039 11.8654 18.652C11.7127 18.8558 11.6778 19.0253 11.6851 19.1576C11.6929 19.2979 11.7522 19.4591 11.8873 19.6252C12.1671 19.9691 12.7112 20.25 13.3335 20.25H16.6669C17.2892 20.25 17.8333 19.9691 18.1131 19.6252C18.2482 19.4591 18.3076 19.2979 18.3153 19.1576C18.3226 19.0253 18.2877 18.8558 18.1351 18.652C18.0241 18.5039 17.9022 18.363 17.7697 18.2305C17.0352 17.496 16.039 17.0834 15.0002 17.0834Z" fill="white"/>
</svg>
