<svg width="920" height="115" viewBox="0 0 920 115" fill="none" xmlns="http://www.w3.org/2000/svg">
<g clip-path="url(#clip0_1636_11904)">
<rect width="920" height="115" fill="white"/>
<rect width="920" height="115" fill="#D9D9D9"/>
<path d="M368.28 66L374.52 51.9H376.14L382.48 66H380.56L378.82 62L379.62 62.48H371.04L371.92 62L370.18 66H368.28ZM375.3 53.98L372.18 61.38L371.7 60.96H378.96L378.58 61.38L375.38 53.98H375.3ZM385.886 66V51.9H390.666C392.239 51.9 393.566 52.1733 394.646 52.72C395.739 53.2667 396.566 54.0667 397.126 55.12C397.686 56.16 397.966 57.4333 397.966 58.94C397.966 60.4467 397.686 61.7267 397.126 62.78C396.566 63.8333 395.739 64.6333 394.646 65.18C393.566 65.7267 392.239 66 390.666 66H385.886ZM387.746 64.42H390.526C392.406 64.42 393.799 63.9667 394.706 63.06C395.612 62.1533 396.066 60.78 396.066 58.94C396.066 57.1 395.612 55.7333 394.706 54.84C393.799 53.9333 392.406 53.48 390.526 53.48H387.746V64.42ZM406.414 66L400.234 51.9H402.254L407.634 64.46H406.954L412.354 51.9H414.294L408.074 66H406.414ZM417.416 66V51.9H426.536V53.42H419.216V58.08H426.076V59.6H419.216V64.48H426.536V66H417.416ZM430.613 66V51.9H436.453C437.96 51.9 439.12 52.2533 439.933 52.96C440.76 53.6667 441.173 54.6533 441.173 55.92C441.173 56.76 440.986 57.4733 440.613 58.06C440.24 58.6467 439.713 59.0933 439.033 59.4C438.366 59.7067 437.586 59.86 436.693 59.86L437.033 59.58H437.513C438.06 59.58 438.546 59.72 438.973 60C439.4 60.2667 439.753 60.7067 440.033 61.32L442.033 66H439.973L438.033 61.36C437.806 60.7867 437.473 60.4133 437.033 60.24C436.606 60.0667 436.066 59.98 435.413 59.98H432.473V66H430.613ZM432.473 58.54H436.173C437.2 58.54 437.98 58.32 438.513 57.88C439.06 57.44 439.333 56.8 439.333 55.96C439.333 55.1333 439.06 54.5067 438.513 54.08C437.98 53.64 437.2 53.42 436.173 53.42H432.473V58.54ZM448.909 66V53.48H444.029V51.9H455.689V53.48H450.789V66H448.909ZM459.077 66V51.9H460.937V66H459.077ZM470.41 66.18C469.277 66.18 468.257 66.0333 467.35 65.74C466.444 65.4467 465.657 65.0333 464.99 64.5L465.63 63.02C466.097 63.3667 466.57 63.66 467.05 63.9C467.53 64.1267 468.044 64.3 468.59 64.42C469.15 64.5267 469.757 64.58 470.41 64.58C471.57 64.58 472.424 64.3733 472.97 63.96C473.53 63.5333 473.81 62.9733 473.81 62.28C473.81 61.68 473.617 61.22 473.23 60.9C472.844 60.58 472.17 60.3267 471.21 60.14L469.07 59.7C467.777 59.4333 466.81 59 466.17 58.4C465.544 57.7867 465.23 56.96 465.23 55.92C465.23 55.08 465.45 54.3467 465.89 53.72C466.344 53.08 466.964 52.5867 467.75 52.24C468.55 51.8933 469.484 51.72 470.55 51.72C471.537 51.72 472.45 51.8667 473.29 52.16C474.13 52.4533 474.837 52.8867 475.41 53.46L474.77 54.88C474.17 54.3333 473.524 53.94 472.83 53.7C472.15 53.4467 471.377 53.32 470.51 53.32C469.457 53.32 468.624 53.5467 468.01 54C467.397 54.4533 467.09 55.0667 467.09 55.84C467.09 56.4533 467.284 56.94 467.67 57.3C468.057 57.6467 468.697 57.9133 469.59 58.1L471.73 58.52C473.09 58.7867 474.084 59.2067 474.71 59.78C475.35 60.3533 475.67 61.1467 475.67 62.16C475.67 62.96 475.457 63.6667 475.03 64.28C474.604 64.88 473.997 65.3467 473.21 65.68C472.424 66.0133 471.49 66.18 470.41 66.18ZM479.709 66V51.9H488.829V53.42H481.509V58.08H488.369V59.6H481.509V64.48H488.829V66H479.709ZM492.906 66V51.9H494.546L500.106 64.42H499.506L505.066 51.9H506.686V66H504.986V54.38H505.606L500.386 66H499.206L493.986 54.38H494.606V66H492.906ZM511.533 66V51.9H520.653V53.42H513.333V58.08H520.193V59.6H513.333V64.48H520.653V66H511.533ZM524.729 66V51.9H526.169L535.009 63.58H534.529V51.9H536.269V66H534.849L526.009 54.32H526.469V66H524.729ZM544.47 66V53.48H539.59V51.9H551.25V53.48H546.35V66H544.47Z" fill="black"/>
</g>
<defs>
<clipPath id="clip0_1636_11904">
<rect width="920" height="115" fill="white"/>
</clipPath>
</defs>
</svg>
