<svg width="82" height="82" viewBox="0 0 82 82" fill="none" xmlns="http://www.w3.org/2000/svg">
<rect width="82" height="82" rx="16" fill="#480CA8"/>
<path d="M58.552 51.5233C58.552 52.1424 58.408 52.7787 58.102 53.3979C57.7959 54.017 57.3999 54.6017 56.8778 55.152C55.9957 56.0807 55.0236 56.7514 53.9254 57.1813C52.8453 57.6113 51.6752 57.8349 50.415 57.8349C48.5788 57.8349 46.6165 57.4221 44.5463 56.5794C42.476 55.7367 40.4058 54.6017 38.3535 53.1743C36.2833 51.7297 34.321 50.1303 32.4488 48.3589C30.5946 46.5704 28.9203 44.6958 27.4262 42.7353C25.95 40.7747 24.7618 38.8142 23.8977 36.8709C23.0336 34.9103 22.6016 33.0358 22.6016 31.2472C22.6016 30.0778 22.8176 28.9599 23.2496 27.9281C23.6817 26.879 24.3658 25.9159 25.3199 25.056C26.472 23.9726 27.7322 23.4395 29.0644 23.4395C29.5684 23.4395 30.0725 23.5426 30.5225 23.749C30.9906 23.9554 31.4047 24.2649 31.7287 24.7121L35.9052 30.3357C36.2292 30.7657 36.4633 31.1612 36.6253 31.5396C36.7873 31.9007 36.8773 32.2619 36.8773 32.5886C36.8773 33.0014 36.7513 33.4141 36.4993 33.8097C36.2653 34.2052 35.9232 34.618 35.4912 35.0307L34.123 36.3893C33.925 36.5785 33.835 36.8021 33.835 37.0772C33.835 37.2148 33.853 37.3352 33.889 37.4728C33.943 37.6104 33.997 37.7135 34.033 37.8167C34.357 38.3843 34.9151 39.1238 35.7072 40.018C36.5173 40.9123 37.3814 41.8238 38.3175 42.7353C39.2896 43.6468 40.2257 44.4894 41.1799 45.2633C42.116 46.02 42.8901 46.536 43.5021 46.8455C43.5922 46.8799 43.7002 46.9315 43.8262 46.9831C43.9702 47.0347 44.1142 47.0519 44.2762 47.0519C44.5823 47.0519 44.8163 46.9487 45.0143 46.7595L46.3825 45.4697C46.8326 45.0398 47.2646 44.713 47.6787 44.5066C48.0927 44.2659 48.5068 44.1455 48.9568 44.1455C49.2989 44.1455 49.6589 44.2143 50.055 44.3691C50.451 44.5238 50.8651 44.7474 51.3151 45.0398L57.2739 49.0812C57.7419 49.3908 58.0659 49.7519 58.264 50.1819C58.444 50.6118 58.552 51.0418 58.552 51.5233Z" stroke="white" stroke-width="3.2" stroke-miterlimit="10"/>
</svg>
