<svg width="18" height="18" viewBox="0 0 18 18" fill="none" xmlns="http://www.w3.org/2000/svg">
<g clip-path="url(#clip0_1680_12865)">
<path fill-rule="evenodd" clip-rule="evenodd" d="M0.9375 9C0.9375 4.54725 4.54725 0.9375 9 0.9375C13.4527 0.9375 17.0625 4.54725 17.0625 9C17.0625 13.4527 13.4527 17.0625 9 17.0625C4.54725 17.0625 0.9375 13.4527 0.9375 9ZM9 2.0625C7.16006 2.0625 5.39548 2.79341 4.09445 4.09445C2.79341 5.39548 2.0625 7.16006 2.0625 9C2.0625 10.8399 2.79341 12.6045 4.09445 13.9056C5.39548 15.2066 7.16006 15.9375 9 15.9375C10.8399 15.9375 12.6045 15.2066 13.9056 13.9056C15.2066 12.6045 15.9375 10.8399 15.9375 9C15.9375 7.16006 15.2066 5.39548 13.9056 4.09445C12.6045 2.79341 10.8399 2.0625 9 2.0625Z" fill="#D2D2D2"/>
<path fill-rule="evenodd" clip-rule="evenodd" d="M9.2145 6.56251C7.71225 6.56251 6.5625 7.68976 6.5625 9.00001C6.5625 10.3103 7.71225 11.4375 9.2145 11.4375C9.59775 11.4375 9.96075 11.3625 10.287 11.2298C10.3554 11.2018 10.4286 11.1877 10.5025 11.188C10.5764 11.1884 10.6495 11.2033 10.7176 11.232C10.7857 11.2606 10.8475 11.3024 10.8995 11.3549C10.9515 11.4074 10.9926 11.4696 11.0205 11.538C11.0484 11.6064 11.0626 11.6796 11.0622 11.7535C11.0618 11.8274 11.0469 11.9005 11.0183 11.9686C10.9897 12.0367 10.9479 12.0985 10.8954 12.1505C10.8429 12.2025 10.7807 12.2436 10.7123 12.2715C10.2365 12.4645 9.72788 12.5633 9.2145 12.5625C7.1655 12.5625 5.4375 11.0033 5.4375 9.00001C5.4375 6.99676 7.1655 5.4375 9.2145 5.4375C9.72788 5.43669 10.2365 5.53552 10.7123 5.7285C10.8505 5.7848 10.9607 5.8937 11.0187 6.03126C11.0766 6.16882 11.0775 6.32376 11.0213 6.46201C10.965 6.60025 10.8561 6.71047 10.7185 6.76842C10.5809 6.82637 10.426 6.8273 10.2878 6.771C9.9469 6.6326 9.58238 6.56179 9.2145 6.56251Z" fill="#D2D2D2"/>
</g>
<defs>
<clipPath id="clip0_1680_12865">
<rect width="18" height="18" fill="white"/>
</clipPath>
</defs>
</svg>
