<svg width="20" height="20" viewBox="0 0 20 20" fill="none" xmlns="http://www.w3.org/2000/svg">
<path d="M8.37477 2.10824L3.35811 5.38324C1.74977 6.43324 1.74977 8.78324 3.35811 9.83324L8.37477 13.1082C9.27477 13.6999 10.7581 13.6999 11.6581 13.1082L16.6498 9.83324C18.2498 8.78324 18.2498 6.44157 16.6498 5.39157L11.6581 2.11657C10.7581 1.51657 9.27477 1.51657 8.37477 2.10824Z" stroke="#171717" stroke-width="1.5" stroke-linecap="round" stroke-linejoin="round"/>
<path d="M4.69144 10.8999L4.68311 14.8082C4.68311 15.8666 5.49977 16.9999 6.49977 17.3332L9.15811 18.2166C9.61644 18.3666 10.3748 18.3666 10.8414 18.2166L13.4998 17.3332C14.4998 16.9999 15.3164 15.8666 15.3164 14.8082V10.9416" stroke="#171717" stroke-width="1.5" stroke-linecap="round" stroke-linejoin="round"/>
<path d="M17.8335 12.5V7.5" stroke="#171717" stroke-width="1.5" stroke-linecap="round" stroke-linejoin="round"/>
</svg>
