<svg width="20" height="16" viewBox="0 0 20 16" fill="none" xmlns="http://www.w3.org/2000/svg">
<path d="M19 2.16667V13.8333C19 14.1428 18.8946 14.4395 18.7071 14.6583C18.5196 14.8771 18.2652 15 18 15H2C1.73478 15 1.48043 14.8771 1.29289 14.6583C1.10536 14.4395 1 14.1428 1 13.8333V2.16667M19 2.16667C19 1.85725 18.8946 1.5605 18.7071 1.34171C18.5196 1.12292 18.2652 1 18 1H2C1.73478 1 1.48043 1.12292 1.29289 1.34171C1.10536 1.5605 1 1.85725 1 2.16667M19 2.16667L11.28 9.67183C10.9206 10.0211 10.4677 10.2123 10 10.2123C9.53229 10.2123 9.07938 10.0211 8.72 9.67183L1 2.16667" stroke="white" stroke-width="2" stroke-linecap="round" stroke-linejoin="round"/>
</svg>
