<svg width="22" height="21" viewBox="0 0 22 21" fill="none" xmlns="http://www.w3.org/2000/svg">
<path d="M3.83203 9.64227V13.991C3.83203 15.5835 3.83203 15.5835 5.3793 16.5985L9.63427 18.9873C10.273 19.346 11.3165 19.346 11.9552 18.9873L16.2102 16.5985C17.7574 15.5835 17.7574 15.5835 17.7574 13.991V9.64227C17.7574 8.04977 17.7574 8.04977 16.2102 7.03477L11.9552 4.64602C11.3165 4.28727 10.273 4.28727 9.63427 4.64602L5.3793 7.03477C3.83203 8.04977 3.83203 8.04977 3.83203 9.64227Z" stroke="#171717" stroke-width="1.3" stroke-linecap="round" stroke-linejoin="round"/>
<path d="M15.743 6.67601V4.37476C15.743 2.62476 14.8434 1.74976 13.0442 1.74976H8.54637C6.74723 1.74976 5.84766 2.62476 5.84766 4.37476V6.61476" stroke="#171717" stroke-width="1.3" stroke-linecap="round" stroke-linejoin="round"/>
<path d="M11.3623 9.61609L11.8751 10.3948C11.956 10.5173 12.1359 10.6398 12.2709 10.6748L13.1884 10.9023C13.7552 11.0423 13.9081 11.5148 13.5393 11.9523L12.9366 12.6611C12.8466 12.7748 12.7746 12.9761 12.7836 13.1161L12.8376 14.0348C12.8736 14.6036 12.4598 14.8923 11.92 14.6823L11.0385 14.3411C10.9035 14.2886 10.6786 14.2886 10.5437 14.3411L9.66211 14.6823C9.12236 14.8923 8.70856 14.5948 8.74454 14.0348L8.79852 13.1161C8.80751 12.9761 8.73555 12.7661 8.64559 12.6611L8.04287 11.9523C7.67405 11.5148 7.82698 11.0423 8.39371 10.9023L9.31127 10.6748C9.4552 10.6398 9.63512 10.5086 9.70708 10.3948L10.2198 9.61609C10.5437 9.14359 11.0474 9.14359 11.3623 9.61609Z" stroke="#171717" stroke-width="1.3" stroke-linecap="round" stroke-linejoin="round"/>
</svg>
