<svg width="20" height="20" viewBox="0 0 20 20" fill="none" xmlns="http://www.w3.org/2000/svg">
<path d="M14.1665 15.3584H10.8332L7.12483 17.825C6.57483 18.1917 5.83317 17.8001 5.83317 17.1334V15.3584C3.33317 15.3584 1.6665 13.6917 1.6665 11.1917V6.19169C1.6665 3.69169 3.33317 2.02502 5.83317 2.02502H14.1665C16.6665 2.02502 18.3332 3.69169 18.3332 6.19169V11.1917C18.3332 13.6917 16.6665 15.3584 14.1665 15.3584Z" stroke="#171717" stroke-width="1.25" stroke-miterlimit="10" stroke-linecap="round" stroke-linejoin="round"/>
<path d="M10 9.46668V9.29171C10 8.72504 10.35 8.42503 10.7 8.18336C11.0417 7.95003 11.3833 7.65004 11.3833 7.10004C11.3833 6.33337 10.7667 5.71667 10 5.71667C9.23334 5.71667 8.6167 6.33337 8.6167 7.10004" stroke="#171717" stroke-width="1.25" stroke-linecap="round" stroke-linejoin="round"/>
<path d="M9.99641 11.4583H10.0039" stroke="#171717" stroke-width="1.25" stroke-linecap="round" stroke-linejoin="round"/>
</svg>
