<svg width="410" height="300" viewBox="0 0 410 300" fill="none" xmlns="http://www.w3.org/2000/svg">
<g clip-path="url(#clip0_1600_10475)">
<rect width="410" height="300" fill="white"/>
<rect width="410" height="300" fill="#D9D9D9"/>
<path d="M150.04 165V144.88H153.68V165H150.04ZM149.72 140.48V136.56H154.04V140.48H149.72ZM159.767 165V149.64C159.767 148.867 159.74 148.08 159.687 147.28C159.633 146.48 159.553 145.68 159.447 144.88H162.967L163.367 149.2H162.887C163.42 147.707 164.273 146.56 165.447 145.76C166.62 144.933 168.02 144.52 169.647 144.52C171.3 144.52 172.66 144.92 173.727 145.72C174.793 146.493 175.513 147.72 175.887 149.4H175.287C175.793 147.907 176.687 146.72 177.967 145.84C179.247 144.96 180.74 144.52 182.447 144.52C184.66 144.52 186.327 145.173 187.447 146.48C188.567 147.76 189.127 149.76 189.127 152.48V165H185.487V152.68C185.487 150.84 185.167 149.52 184.527 148.72C183.887 147.893 182.873 147.48 181.487 147.48C179.86 147.48 178.58 148.04 177.647 149.16C176.713 150.253 176.247 151.747 176.247 153.64V165H172.607V152.68C172.607 150.84 172.287 149.52 171.647 148.72C171.033 147.893 170.02 147.48 168.607 147.48C166.98 147.48 165.7 148.04 164.767 149.16C163.86 150.253 163.407 151.747 163.407 153.64V165H159.767ZM202.759 165.36C200.999 165.36 199.452 164.947 198.119 164.12C196.786 163.293 195.746 162.093 194.999 160.52C194.252 158.947 193.879 157.08 193.879 154.92C193.879 152.76 194.252 150.907 194.999 149.36C195.746 147.787 196.786 146.587 198.119 145.76C199.452 144.933 200.999 144.52 202.759 144.52C204.546 144.52 206.092 144.973 207.399 145.88C208.732 146.76 209.612 147.973 210.039 149.52H209.559L209.999 144.88H213.519C213.439 145.68 213.359 146.48 213.279 147.28C213.226 148.08 213.199 148.867 213.199 149.64V165H209.559V160.4H209.999C209.572 161.92 208.692 163.133 207.359 164.04C206.052 164.92 204.519 165.36 202.759 165.36ZM203.599 162.48C205.412 162.48 206.866 161.84 207.959 160.56C209.052 159.28 209.599 157.4 209.599 154.92C209.599 152.44 209.052 150.573 207.959 149.32C206.866 148.067 205.412 147.44 203.599 147.44C201.786 147.44 200.319 148.067 199.199 149.32C198.106 150.573 197.559 152.44 197.559 154.92C197.559 157.4 198.106 159.28 199.199 160.56C200.292 161.84 201.759 162.48 203.599 162.48ZM228.258 173.96C226.498 173.96 224.884 173.747 223.418 173.32C221.951 172.893 220.631 172.24 219.458 171.36L220.418 168.68C221.244 169.24 222.058 169.693 222.858 170.04C223.658 170.387 224.484 170.64 225.338 170.8C226.218 170.96 227.124 171.04 228.058 171.04C230.031 171.04 231.511 170.533 232.498 169.52C233.484 168.507 233.978 167.067 233.978 165.2V159.56H234.378C233.951 161.08 233.071 162.293 231.738 163.2C230.431 164.08 228.884 164.52 227.098 164.52C225.284 164.52 223.698 164.12 222.338 163.32C221.004 162.493 219.964 161.333 219.218 159.84C218.471 158.32 218.098 156.547 218.098 154.52C218.098 152.467 218.471 150.693 219.218 149.2C219.964 147.707 221.004 146.56 222.338 145.76C223.698 144.933 225.284 144.52 227.098 144.52C228.884 144.52 230.431 144.96 231.738 145.84C233.044 146.72 233.911 147.933 234.338 149.48L233.978 149.12L234.338 144.88H237.858C237.778 145.68 237.698 146.48 237.618 147.28C237.564 148.08 237.538 148.867 237.538 149.64V164.76C237.538 167.747 236.751 170.027 235.178 171.6C233.631 173.173 231.324 173.96 228.258 173.96ZM227.898 161.64C229.738 161.64 231.204 161.013 232.298 159.76C233.391 158.507 233.938 156.76 233.938 154.52C233.938 152.253 233.391 150.507 232.298 149.28C231.204 148.053 229.738 147.44 227.898 147.44C226.031 147.44 224.538 148.053 223.418 149.28C222.324 150.507 221.778 152.253 221.778 154.52C221.778 156.76 222.324 158.507 223.418 159.76C224.538 161.013 226.031 161.64 227.898 161.64ZM252.794 165.36C249.594 165.36 247.06 164.44 245.194 162.6C243.354 160.76 242.434 158.227 242.434 155C242.434 152.867 242.834 151.027 243.634 149.48C244.46 147.907 245.594 146.693 247.034 145.84C248.474 144.96 250.154 144.52 252.074 144.52C253.914 144.52 255.474 144.92 256.754 145.72C258.034 146.493 259.007 147.6 259.674 149.04C260.34 150.48 260.674 152.187 260.674 154.16V155.36H245.274V153.2H258.194L257.514 153.72C257.514 151.64 257.047 150.027 256.114 148.88C255.207 147.733 253.86 147.16 252.074 147.16C250.127 147.16 248.62 147.84 247.554 149.2C246.487 150.533 245.954 152.36 245.954 154.68V155.04C245.954 157.493 246.554 159.347 247.754 160.6C248.98 161.853 250.674 162.48 252.834 162.48C254.034 162.48 255.154 162.307 256.194 161.96C257.234 161.613 258.234 161.04 259.194 160.24L260.394 162.76C259.487 163.587 258.354 164.227 256.994 164.68C255.66 165.133 254.26 165.36 252.794 165.36Z" fill="black"/>
</g>
<defs>
<clipPath id="clip0_1600_10475">
<rect width="410" height="300" fill="white"/>
</clipPath>
</defs>
</svg>
