<svg width="82" height="82" viewBox="0 0 82 82" fill="none" xmlns="http://www.w3.org/2000/svg">
<rect width="82" height="82" rx="16" fill="#480CA8"/>
<g filter="url(#filter0_d_2062_15196)">
<path d="M40.9998 43.6055C44.1397 43.6055 46.6851 41.0601 46.6851 37.9202C46.6851 34.7803 44.1397 32.2349 40.9998 32.2349C37.8599 32.2349 35.3145 34.7803 35.3145 37.9202C35.3145 41.0601 37.8599 43.6055 40.9998 43.6055Z" stroke="white" stroke-width="3.2"/>
<path d="M25.7295 34.6041C29.3192 18.8236 52.6984 18.8418 56.2699 34.6223C58.3655 43.8792 52.6072 51.7147 47.5597 56.5618C43.897 60.097 38.1024 60.097 34.4215 56.5618C29.3921 51.7147 23.6339 43.8609 25.7295 34.6041Z" stroke="white" stroke-width="3.2"/>
</g>
<defs>
<filter id="filter0_d_2062_15196" x="19.6855" y="21.1777" width="42.6289" height="47.6353" filterUnits="userSpaceOnUse" color-interpolation-filters="sRGB">
<feFlood flood-opacity="0" result="BackgroundImageFix"/>
<feColorMatrix in="SourceAlpha" type="matrix" values="0 0 0 0 0 0 0 0 0 0 0 0 0 0 0 0 0 0 127 0" result="hardAlpha"/>
<feOffset dy="4"/>
<feGaussianBlur stdDeviation="2"/>
<feComposite in2="hardAlpha" operator="out"/>
<feColorMatrix type="matrix" values="0 0 0 0 0 0 0 0 0 0 0 0 0 0 0 0 0 0 0.25 0"/>
<feBlend mode="normal" in2="BackgroundImageFix" result="effect1_dropShadow_2062_15196"/>
<feBlend mode="normal" in="SourceGraphic" in2="effect1_dropShadow_2062_15196" result="shape"/>
</filter>
</defs>
</svg>
