<svg width="20" height="20" viewBox="0 0 20 20" fill="none" xmlns="http://www.w3.org/2000/svg">
<path d="M12.825 4.34163L13.9999 6.69162C14.1583 7.01662 14.5833 7.32495 14.9416 7.39162L17.0666 7.74161C18.425 7.96661 18.7416 8.94995 17.7666 9.93329L16.1083 11.5916C15.8333 11.8666 15.675 12.4083 15.7666 12.8L16.2416 14.85C16.6166 16.4666 15.75 17.1 14.325 16.25L12.3333 15.0666C11.9749 14.85 11.375 14.85 11.0166 15.0666L9.02495 16.25C7.59995 17.0916 6.73329 16.4666 7.10829 14.85L7.5833 12.8C7.67496 12.4166 7.51663 11.875 7.24163 11.5916L5.5833 9.93329C4.6083 8.95829 4.92497 7.97495 6.2833 7.74161L8.40829 7.39162C8.76662 7.33328 9.19163 7.01662 9.34996 6.69162L10.525 4.34163C11.15 3.06663 12.1833 3.06663 12.825 4.34163Z" stroke="#171717" stroke-width="1.3" stroke-linecap="round" stroke-linejoin="round"/>
<path d="M6.6665 4.16663H1.6665" stroke="#171717" stroke-width="1.3" stroke-linecap="round" stroke-linejoin="round"/>
<path d="M4.1665 15.8334H1.6665" stroke="#171717" stroke-width="1.3" stroke-linecap="round" stroke-linejoin="round"/>
<path d="M2.49984 10H1.6665" stroke="#171717" stroke-width="1.3" stroke-linecap="round" stroke-linejoin="round"/>
</svg>
