<svg width="159" height="66" viewBox="0 0 159 66" fill="none" xmlns="http://www.w3.org/2000/svg">
<path d="M1 48.8416L157.951 48.8415" stroke="black" stroke-width="2" stroke-linecap="round"/>
<path fill-rule="evenodd" clip-rule="evenodd" d="M134.783 54.3597C133.984 53.2471 132.299 53.0629 131.217 52.2832C130.647 51.8556 130.044 51.5725 129.601 50.9968C130.306 50.1859 129.434 48.2851 129.255 47.1875C128.543 44.3136 127.886 41.3938 127.04 38.5233C128.506 38.9699 128.124 36.296 127.914 35.6777C127.9 35.5927 127.792 35.5757 127.726 35.549C127.745 35.4276 127.796 35.4009 127.642 35.3674C127.59 34.6399 127.8 33.8253 127.42 33.1826C126.992 32.4811 125.967 31.8941 125.121 31.8844C124.526 29.5742 124.418 28.4846 121.601 29.4639C121.663 29.2389 121.683 29.0325 121.574 28.8052C121.15 27.5529 120.618 26.1828 120.155 24.9137C119.622 23.4533 119.07 21.9431 118.357 20.5398C117.86 19.6487 116.305 19.4105 115.252 19.558C115 19.1241 114.367 17.9238 113.565 18.2013C113.559 17.8393 113.553 17.4773 113.549 17.1153C113.544 16.8006 113.578 16.4779 113.455 16.1791C113.324 15.8626 113.057 15.6955 112.744 15.5744C111.795 15.2679 110.706 14.7755 109.705 15.0802C108.831 15.4706 108.933 16.9387 108.51 17.7367C107.917 16.8765 106.906 17.4533 106.692 18.3758C104.256 19.3258 102.163 18.2466 102.007 21.9757C102.141 22.6555 102.255 23.2931 102.192 23.9796L102.118 23.987C101.495 27.2911 101.255 30.8331 101.406 34.5153C101.375 35.9651 100.836 37.3182 100.313 38.6265C99.9293 39.5885 99.5327 40.5833 99.3447 41.6039C99.1362 42.4539 98.3699 46.5416 100.074 45.1845C100.139 49.835 104.374 50.4304 108.188 49.4032C112.237 48.5796 116.795 48.8164 119.322 44.832C120.179 46.2674 120.475 47.1536 120.69 48.6546C120.926 49.7541 121.269 51.0029 121.899 51.7302C121.356 52.6861 121.091 53.8505 121.117 54.6095C121.127 54.9076 120.988 55.0456 121.188 55.2309C122.149 56.1199 124.292 56.1299 125.922 56.5256C127.04 56.6648 131.081 57.1972 131.698 56.8502C132.129 56.968 131.628 55.8713 132.059 55.8479C132.206 55.849 132.226 55.6653 132.377 55.6721C133.343 55.7152 135.425 55.993 134.922 55.2309L134.783 54.3597Z" fill="white"/>
<path fill-rule="evenodd" clip-rule="evenodd" d="M134.543 55.4365C133.831 55.5871 133.098 55.5451 132.377 55.6039C132.4 55.5448 132.42 55.4843 132.435 55.4228C133.181 55.3344 133.963 55.2925 134.673 55.0514C134.69 55.1298 134.703 55.2091 134.708 55.2892C134.708 55.2999 134.707 55.4197 134.724 55.3976C134.703 55.425 134.575 55.4306 134.543 55.4365M130.945 53.6279C129.649 53.2106 128.275 52.8522 127.275 51.8842C127.277 51.8788 127.279 51.8734 127.281 51.868C127.487 51.811 127.713 51.6894 127.911 51.8217C128.545 51.8003 129.207 51.5829 129.65 51.1235C129.681 51.1298 129.71 51.1386 129.739 51.1496C130.593 52.5716 132.412 52.8424 133.744 53.6663C134.285 53.974 135.291 54.8028 134.004 54.8213C133.496 54.8968 132.985 54.9525 132.472 54.9911C132.433 54.1904 131.622 53.8397 130.945 53.6279M131.851 55.6786C131.593 56.0226 131.128 56.1585 130.707 56.1249C130.398 56.0837 130.124 55.9771 129.802 56.0001C127.361 55.9093 124.96 55.4143 122.58 54.909C120.448 54.5174 122.077 52.9767 121.899 51.7302C122.2 51.9098 122.541 52.041 122.893 52.1372C123.345 53.3699 124.582 53.0479 125.458 52.4573C125.795 52.4466 126.207 52.4974 126.483 52.2777C126.499 52.2907 126.516 52.3016 126.534 52.311C126.753 52.1846 126.954 52.0522 127.184 51.9547C127.961 53.2409 129.612 53.5345 130.937 54.0311C131.747 54.2449 132.411 54.8579 131.851 55.6786M131.807 56.7804C131.122 56.9809 130.397 56.9462 129.69 56.8897C127.368 56.6927 125.061 56.3053 122.808 55.7191C122.274 55.5801 121.237 55.4186 121.188 54.7622C121.664 55.3728 122.513 55.4447 123.226 55.6022C125.567 56.0514 127.966 56.6316 130.36 56.5197C130.866 56.6606 131.417 56.5494 131.845 56.2751C131.831 56.4435 131.819 56.6119 131.807 56.7804M119.146 35.338C119.493 34.4375 119.869 33.5491 120.233 32.6541C120.908 33.0244 121.67 33.1598 122.448 33.2462C122.466 33.2551 122.485 33.2631 122.506 33.2694C122.543 33.2767 122.574 33.2733 122.599 33.2623C123.637 33.3697 124.695 33.4119 125.608 33.8272C125.961 33.9879 126.292 34.2044 126.592 34.5026C126.92 34.8102 127.185 35.1816 127.362 35.5914C127.418 35.7178 127.447 35.8493 127.535 35.9533C127.561 36.0932 127.591 36.232 127.611 36.3732C127.662 36.925 127.732 37.5063 127.514 38.0357C127.38 38.3599 127.103 38.0991 126.92 37.9722C126.621 37.7683 126.347 37.5344 126.073 37.3005C125.232 36.5264 124.249 35.8682 123.069 35.7595C121.795 35.5861 120.415 35.3696 119.146 35.338M118.636 35.3399C118.566 35.5148 118.497 35.6902 118.429 35.8659C118.095 35.8098 117.382 35.6775 117.091 35.5269C117.195 35.5303 117.298 35.4774 117.324 35.3559C117.336 35.3022 117.354 35.2519 117.368 35.1995C117.544 34.6387 117.694 34.0666 117.942 33.5291C118.185 32.9615 118.474 32.4099 118.695 31.8339C119.069 31.8107 119.66 32.2653 119.927 32.4508C119.451 33.3918 119.027 34.3572 118.637 35.3357C118.63 35.3357 118.622 35.3357 118.615 35.3359C118.622 35.3372 118.629 35.3386 118.636 35.3399M116.431 35.2735C114.511 35.156 112.566 35.2798 110.668 34.9466C110.309 34.8868 109.973 34.7789 109.662 34.6316C108.756 34.2033 108.053 33.4429 107.534 32.5724C105.662 29.8134 103.602 27.0729 102.68 23.8403C102.134 22.2758 102.028 19.9371 103.937 19.2639C104.783 18.9547 105.805 18.9737 106.534 18.4126C106.451 18.7092 106.405 19.0195 106.363 19.2942C106.291 19.7422 106.22 20.2058 106.279 20.6588C106.279 20.6628 106.28 20.6667 106.28 20.6704C106.185 20.9254 106.486 21.1661 106.781 21.1411C107.403 21.1271 107.709 20.3949 108.332 20.3725C108.56 20.3644 108.696 20.4974 108.836 20.6557C109.173 21.0394 109.504 21.4306 109.912 21.745C109.941 21.7674 109.98 21.7403 109.963 21.7061C109.757 21.2754 109.468 20.894 109.182 20.5113C108.588 19.5829 107.788 20.0101 107.113 20.5745C106.981 20.668 106.847 20.7439 106.712 20.7107C106.721 20.6788 106.723 20.642 106.717 20.6009C106.667 20.2374 106.716 19.8542 106.768 19.4936C106.884 18.8206 106.85 17.943 107.513 17.5356C107.802 17.3754 108.152 17.3551 108.434 17.5369C108.382 17.6609 108.32 17.8005 108.312 17.9317C108.255 17.8927 108.217 17.9048 108.207 17.9894C108.426 18.6226 108.785 19.2044 109.09 19.8015C109.328 20.2495 109.567 20.697 109.812 21.1419C109.884 21.2796 109.944 21.4256 110.085 21.5019C110.085 21.5033 110.086 21.5046 110.086 21.5059C110.181 21.8127 110.181 22.1425 110.254 22.4546C110.299 22.6453 110.351 22.8371 110.406 23.0277C110.458 23.2066 110.513 23.3846 110.569 23.5598C111.236 25.8199 111.867 28.0906 112.517 30.3558C111.748 29.9665 111.358 29.2387 111.006 28.4949C110.077 26.5782 109.104 24.4861 108.064 22.7177C109.031 24.7282 110.357 29.4379 112.009 30.6086C112.261 30.7719 112.535 30.8949 112.822 30.9924C112.942 31.0985 113.067 31.1214 113.152 31.0933C113.671 31.2357 114.214 31.3177 114.724 31.4222C115.609 31.604 116.494 31.7844 117.379 31.964C117.679 32.0246 117.98 32.1057 118.285 32.1199C118.301 32.1207 118.316 32.1202 118.329 32.1184C117.655 32.8764 117.202 33.9113 116.942 34.8813C116.731 34.8218 116.492 35.0422 116.431 35.2735M108.833 35.357C107.336 37.5555 104.989 38.9193 103.057 40.694C101.899 41.8875 100.976 43.2732 99.9201 44.5501C99.8876 44.5896 99.8547 44.6291 99.8219 44.6683C99.7405 44.7663 99.6275 44.874 99.562 44.9691C99.5602 44.972 99.5583 44.9746 99.5567 44.9768C99.4037 44.6641 99.4875 44.2643 99.4818 43.9079C99.5052 43.2974 99.5868 42.6921 99.7093 42.0937C100.109 39.6911 101.487 37.5526 101.786 35.1363C101.776 32.5664 101.646 29.9891 101.867 27.42C101.948 26.2474 102.033 25.0743 102.153 23.9046C102.982 26.9191 105.404 30.1709 106.778 32.2527C107.333 33.0484 107.829 33.9165 108.61 34.5252C108.799 34.6711 108.998 34.7965 109.206 34.9045C109.065 35.0407 108.945 35.1958 108.833 35.357M113.737 23.6006C113.943 23.5477 114.398 23.4947 114.635 23.3425C114.758 23.7533 114.89 24.1608 115.03 24.5661C114.691 24.468 114.324 24.514 113.974 24.5513C113.519 24.5999 113.064 24.6528 112.61 24.7082C112.194 24.7589 111.778 24.8116 111.362 24.8657C111.214 24.3453 111.065 23.8253 110.913 23.3059C111.78 23.6991 112.809 23.7539 113.737 23.6006M114.209 19.6861C114.208 19.6516 114.2 19.6155 114.181 19.5784C114.179 19.5731 114.176 19.5679 114.174 19.5626C114.103 19.3153 114.031 19.0682 113.958 18.8214C113.947 18.7798 113.879 18.788 113.881 18.8317C113.88 18.8622 113.88 18.8925 113.88 18.9231C113.875 18.9104 113.87 18.8978 113.866 18.8849C113.775 18.6276 113.708 18.3626 113.665 18.0934C114.442 18.2501 115.081 19.9095 115.443 21.0958C115.146 21.0052 114.756 20.9846 114.64 21.2256C114.497 20.7123 114.355 20.1987 114.209 19.6861M113.003 29.5119C113.197 29.4995 113.391 29.4877 113.584 29.4746C113.981 29.4477 114.377 29.4196 114.773 29.3922C114.868 29.3856 114.963 29.3788 115.058 29.372C115.327 29.3575 115.596 29.3429 115.865 29.3289C116.162 29.3134 116.463 29.287 116.763 29.2762C116.819 29.275 116.876 29.2741 116.932 29.2735C116.943 29.2956 116.955 29.3173 116.967 29.338C116.572 29.445 116.211 29.5688 115.922 29.6936C115.265 29.9752 114.634 30.3458 114.094 30.8117C113.994 30.7914 113.894 30.7709 113.795 30.7501C113.52 30.6921 113.243 30.6302 112.976 30.542C112.907 30.3779 112.885 30.1851 112.827 30.0234C112.781 29.8613 112.734 29.6992 112.688 29.5371C112.794 29.5354 112.901 29.5184 113.003 29.5119M112.35 28.1864C112.353 28.1861 112.357 28.1856 112.36 28.1853C112.361 28.1853 112.361 28.1852 112.362 28.1852C112.405 28.1839 112.448 28.1822 112.491 28.1803C112.578 28.1763 112.664 28.1713 112.75 28.1653C112.923 28.1532 113.096 28.1372 113.268 28.1188C113.613 28.0819 113.957 28.0358 114.301 27.9929C114.504 27.9677 114.706 27.9459 114.908 27.9274C115.38 27.8967 115.853 27.8732 116.325 27.8667C116.476 28.2184 116.629 28.5689 116.784 28.9187C116.798 28.9513 116.813 28.9868 116.827 29.0237C116.134 29.0108 115.437 29.0751 114.746 29.1156C114.359 29.1382 113.972 29.1603 113.584 29.1836C113.391 29.1952 113.197 29.2081 113.003 29.2205C112.874 29.2288 112.735 29.2233 112.606 29.2472C112.578 29.151 112.551 29.0549 112.524 28.9587C112.452 28.7096 112.381 28.4602 112.31 28.2108C112.324 28.2043 112.337 28.1962 112.35 28.1864M111.76 26.2678C111.648 25.8744 111.537 25.481 111.425 25.0878C111.446 25.085 111.467 25.0822 111.488 25.0793C111.567 25.0687 111.645 25.0582 111.724 25.0477C111.897 25.0247 112.07 25.0019 112.243 24.9795C112.377 24.9621 112.511 24.945 112.646 24.928C112.794 24.9157 112.942 24.9041 113.09 24.8933C113.761 24.8449 114.437 24.8001 115.11 24.7964C115.251 25.1968 115.4 25.5948 115.554 25.9909C114.982 26.025 114.41 26.0701 113.839 26.115C113.51 26.1408 113.181 26.1676 112.853 26.1954C112.693 26.2089 112.533 26.2227 112.373 26.2366C112.285 26.2444 112.196 26.2522 112.107 26.2601C112.056 26.2647 111.989 26.2817 111.931 26.2821C111.924 26.2763 111.916 26.2707 111.908 26.2651C111.866 26.2367 111.804 26.2417 111.76 26.2678M111.893 26.5998C112.271 26.5548 112.647 26.5063 113.024 26.4614C113.234 26.4415 113.443 26.4219 113.652 26.4028C114.317 26.3421 114.983 26.2895 115.648 26.2296C115.828 26.6856 116.015 27.1391 116.207 27.5906C115.393 27.5381 114.564 27.6719 113.759 27.7645C113.329 27.8139 112.898 27.8585 112.465 27.8743C112.397 27.8768 112.301 27.8733 112.219 27.8911C112.107 27.4975 111.996 27.1039 111.885 26.7101C111.886 26.6735 111.889 26.6368 111.893 26.5998M118.578 31.8608C118.55 31.8874 118.522 31.9148 118.494 31.9429C118.495 31.934 118.495 31.9253 118.495 31.9163C118.495 31.9161 118.496 31.9158 118.496 31.9156C118.521 31.8918 118.548 31.8737 118.578 31.8608M118.075 20.5932C118.912 22.5797 119.634 24.6223 120.419 26.633C120.67 27.3157 120.918 27.9997 121.152 28.6885C121.241 28.9161 121.273 29.1716 121.456 29.3504C121.463 29.3578 121.472 29.3646 121.481 29.3704C121.235 29.4712 121.014 29.5832 120.835 29.6964C120.917 29.9686 121.017 30.2358 121.135 30.4937C121.177 30.5858 121.038 30.6661 120.995 30.5734C120.845 30.2457 120.724 29.9048 120.628 29.5571C120.51 29.4008 120.373 29.2606 120.195 29.1731C119.853 29.0512 119.42 29.0091 118.955 29.0227C118.947 29.0096 118.937 28.9969 118.925 28.9851C118.771 28.8397 118.71 28.6084 118.633 28.4159C118.41 27.8541 118.22 27.2791 118.064 26.6957C117.911 26.1181 117.816 25.5268 117.656 24.9505C117.624 24.8496 117.523 24.3623 117.43 24.3892C117.432 24.4003 117.433 24.4111 117.435 24.4221C117.43 24.419 117.425 24.4177 117.419 24.4179C117.382 25.61 117.7 26.8108 118.065 27.9436C118.166 28.3211 118.395 28.6743 118.469 29.0551C118.149 29.0875 117.823 29.1407 117.508 29.2079C117.503 29.1829 117.496 29.1581 117.489 29.1331C117.485 29.0983 117.474 29.0709 117.458 29.0501C117.418 28.9548 117.366 28.8618 117.327 28.776C117.246 28.5984 117.167 28.4209 117.088 28.2426C116.658 27.2675 116.252 26.2819 115.893 25.2795C115.451 24.0639 115.089 22.8249 114.74 21.5825C114.974 21.705 115.423 21.4603 115.699 22.0195C115.758 22.1604 115.891 22.261 116.054 22.217C116.198 22.1783 116.307 22.0142 116.256 21.8691C116.249 21.8454 116.241 21.822 116.232 21.799C115.964 21.0202 115.747 20.2208 115.36 19.4878C116.353 19.586 117.529 19.6558 118.075 20.5932M127.331 33.6123C127.417 34.0098 127.361 34.4278 127.338 34.8323C126.946 34.3216 126.448 33.8857 125.865 33.5954C125.827 33.34 125.662 33.1174 125.586 32.8693C125.446 32.5192 125.332 32.1616 125.23 31.8004C126.18 31.994 127.104 32.6688 127.331 33.6123M123.888 36.6569C124.21 38.359 124.722 40.0183 125.098 41.7089C125.12 41.8082 124.964 41.8502 124.942 41.7509C124.567 40.0603 124.055 38.401 123.732 36.6989C123.713 36.5993 123.869 36.557 123.888 36.6569M123.722 52.3056C123.98 52.3409 124.237 52.3717 124.495 52.3986C123.98 52.6095 123.5 52.5579 123.08 52.1852C123.295 52.2363 123.511 52.2753 123.722 52.3056M135.077 54.8137C135.063 54.7462 135.024 54.7024 134.976 54.6787C134.984 53.2621 131.94 52.8017 131.018 51.8996C130.596 51.6079 130.289 51.1259 129.799 50.9452C130.076 50.5255 130.002 49.9853 129.94 49.5136C129.806 48.6531 129.468 47.6914 129.379 47.1595C128.712 44.4252 128.065 41.6844 127.31 38.9717C127.295 38.9199 127.266 38.8171 127.23 38.7036C127.312 38.7228 127.389 38.7292 127.462 38.7199C128.521 38.4903 128.284 36.3947 128.035 35.6354C128.008 35.5458 127.946 35.4892 127.873 35.4626C127.882 35.4163 127.874 35.367 127.84 35.3199C127.822 35.2946 127.794 35.2764 127.764 35.2672C127.732 34.5465 127.916 33.7719 127.528 33.1134C127.093 32.3933 126.054 31.7976 125.217 31.7557C125.098 31.3311 124.993 30.9023 124.877 30.4769C124.75 30.0315 124.569 29.553 124.188 29.2543C123.696 28.826 122.646 28.9566 121.774 29.2593C121.822 29.0362 121.713 28.8344 121.647 28.6253C121.43 27.9995 121.207 27.3758 120.979 26.7539C120.161 24.6573 119.49 22.4841 118.467 20.4739C118.044 19.7925 117.229 19.4854 116.447 19.4222C116.081 19.3861 115.69 19.3722 115.32 19.4146C115.308 19.3925 115.296 19.3706 115.284 19.3487C114.981 18.8343 114.365 17.8766 113.656 18.041C113.581 17.5519 113.58 17.0507 113.642 16.5613C113.646 16.5265 113.588 16.5115 113.573 16.5431C113.104 17.5735 113.191 18.8414 113.764 19.817C113.806 19.8847 113.863 19.9198 113.922 19.9298C114.014 20.9541 114.242 21.965 114.523 22.9572C114.481 22.9587 114.44 22.9674 114.406 22.9822C113.509 23.3038 112.522 23.3562 111.587 23.1684C111.324 23.1141 111.07 23.0412 110.814 22.9669C110.765 22.8026 110.717 22.6387 110.668 22.4746C110.546 21.9563 110.514 21.4582 110.204 21.0407C110.186 21.0099 110.167 20.9794 110.149 20.9488C109.9 20.5069 109.647 20.0673 109.392 19.6287C109.33 19.5568 108.916 18.7585 108.594 18.2757C108.634 18.2746 108.676 18.2646 108.717 18.2446C108.944 18.1337 108.941 17.8121 108.983 17.5964C109.11 16.9261 109.257 16.2547 109.297 15.5728C109.299 15.538 109.245 15.5233 109.229 15.5549C108.919 16.1559 108.704 16.7991 108.475 17.4326C108.47 17.4452 108.466 17.4581 108.46 17.4713C108.248 17.209 107.874 17.1465 107.549 17.2171C107.006 17.3559 106.731 17.7881 106.573 18.2796C105.011 19.0095 103.151 18.2641 102.202 20.195C101.775 21.204 101.783 22.3482 102.06 23.539C101.339 27.1487 101.113 30.8415 101.263 34.5144C101.21 36.999 99.6522 39.1545 99.2058 41.5725C98.9832 42.5254 98.8434 43.5023 98.8607 44.4813C98.8265 44.9986 99.0597 45.7624 99.737 45.5612C99.8143 45.5341 99.8843 45.4925 99.9489 45.4422C100.232 49.6311 103.532 50.4413 107.335 49.7199C107.489 49.7225 107.64 49.6877 107.802 49.6432C107.881 49.6203 107.959 49.5963 108.037 49.5711C108.095 49.5574 108.154 49.5434 108.213 49.5289C108.257 49.5202 108.301 49.5119 108.345 49.5035C109.429 48.802 110.555 48.1631 111.627 47.4419C111.702 47.391 111.795 47.5092 111.725 47.566C111.009 48.145 110.308 48.7494 109.564 49.2937C111.685 48.9637 113.844 49.0199 115.825 48.1648C117.215 47.5698 118.523 46.3775 119.311 45.0911C119.323 45.1115 119.335 45.132 119.346 45.1525C119.308 45.0461 119.27 44.9396 119.232 44.8331C118.561 42.9411 117.953 41.0269 117.219 39.1566C117.182 39.0614 117.338 39.0206 117.375 39.1146C117.58 39.639 117.777 40.1669 117.967 40.6969C118.647 42.5937 119.255 44.5152 119.98 46.3968C119.984 46.4076 119.986 46.4176 119.985 46.4269C120.137 46.7921 120.26 47.164 120.346 47.5453C120.435 47.9443 120.565 48.7965 120.694 49.5136C120.806 50.1051 120.888 50.7911 121.308 51.2452C121.308 51.2461 121.307 51.247 121.307 51.248H121.307C121.292 51.2762 121.278 51.3042 121.264 51.332C121.294 51.361 121.332 51.38 121.367 51.4017C121.372 51.3768 121.377 51.3521 121.383 51.3268C121.485 51.4328 121.599 51.5281 121.72 51.6141C121.583 52.6074 120.56 53.5697 121.09 54.6095C120.838 55.1778 121.457 55.6403 121.967 55.7576C122.749 56.0021 123.555 56.186 124.356 56.3605C125.94 56.6496 130.9 57.7181 132.088 56.8863C132.071 56.7088 132.294 56.132 132.03 56.1235C132.147 56.0108 132.244 55.8789 132.317 55.7358C133.044 55.9672 133.851 55.8843 134.591 55.799C135.19 55.8116 135.168 55.2413 135.077 54.8137" fill="black"/>
<path fill-rule="evenodd" clip-rule="evenodd" d="M116.07 9.86918C115.799 8.91142 114.762 8.4935 113.829 8.42718C111.301 8.1701 108.729 9.54867 107.608 11.7841C106.712 13.4815 106.683 15.2646 108.611 16.2337C108.717 16.2905 108.827 16.3512 108.939 16.4064C109.036 16.4951 109.137 16.5804 109.247 16.652C110.296 17.3275 111.585 17.6196 112.834 17.5563C114.677 17.5199 115.335 16.2958 115.738 14.726C116.163 13.1631 116.401 11.4673 116.07 9.86918V9.86918Z" fill="white"/>
<path fill-rule="evenodd" clip-rule="evenodd" d="M117.28 18.8969C117.194 18.6421 117.086 18.3951 116.985 18.1456C116.964 18.0212 116.95 17.8957 116.946 17.7693C116.932 17.3175 117.018 16.8619 117.115 16.422C117.312 15.528 117.521 14.6433 117.626 13.7328C117.813 12.1042 117.701 10.4108 116.944 8.92412C116.288 7.63632 115.177 6.58315 113.741 6.18857C113.316 6.07187 112.88 6.0075 112.44 5.9818C112.385 5.97333 112.331 5.96503 112.277 5.95705C111.665 5.8668 111.046 5.82183 110.427 5.86075C109.402 5.92532 108.386 6.21368 107.532 6.78402C106.672 7.35831 106.061 8.16354 105.776 9.1457C105.48 10.1674 105.506 11.274 104.995 12.2319C104.844 12.5149 104.668 12.784 104.5 13.0575C104.054 13.5441 103.57 14.085 103.464 14.754C103.333 15.5808 103.82 16.2795 104.28 16.9247C104.696 17.5073 105.26 18.312 104.832 19.0293C104.63 19.3677 104.307 19.6209 104.064 19.9294C103.812 20.2498 103.615 20.6176 103.514 21.0107C103.323 21.7488 103.498 22.5182 104.009 23.0951C104.275 23.3954 104.616 23.594 104.985 23.7488C105.364 23.9069 105.733 24.0571 106.046 24.3263C106.189 24.4491 106.32 24.5838 106.444 24.725C106.559 24.9014 106.693 25.0662 106.844 25.2172C107.011 25.3833 107.337 25.1559 107.184 24.9604C107.173 24.9459 107.162 24.9318 107.151 24.9174C107.039 24.7747 106.927 24.632 106.809 24.4939C106.458 23.9499 106.323 23.2839 106.497 22.6485C106.543 22.4834 106.606 22.3268 106.686 22.179C106.703 22.222 106.721 22.2645 106.74 22.3065C106.816 22.4692 106.923 22.6621 107.058 22.827C107.063 22.94 107.081 23.0521 107.114 23.1618C107.323 23.842 108.02 24.1776 108.648 24.4388C108.71 24.4646 108.771 24.4893 108.83 24.5138C108.995 24.581 109.168 24.352 109.066 24.2139C109.039 24.1776 109.013 24.1406 108.988 24.1029C108.694 23.6563 108.553 23.1222 108.633 22.59C108.716 22.0273 109.056 21.5616 109.392 21.1147C109.723 20.6753 110.078 20.2269 110.226 19.6909C110.39 19.0988 110.241 18.5085 109.988 17.9635C109.756 17.4648 109.448 17.0051 109.19 16.5201C109.278 16.6065 109.37 16.69 109.464 16.7706C109.569 16.8612 109.678 16.9649 109.804 17.0287C109.896 17.0759 109.989 16.9629 109.916 16.8865C109.819 16.7861 109.696 16.7085 109.589 16.6189C109.486 16.5329 109.386 16.4435 109.288 16.3516C109.168 16.2385 109.054 16.1201 108.944 15.9981C108.856 15.7786 108.784 15.5532 108.725 15.3245C108.644 15.0149 108.57 14.6855 108.576 14.3646C108.582 14.0354 108.756 13.8049 108.989 13.5839C109.088 13.4903 109.187 13.3979 109.287 13.3052C109.498 13.1533 109.698 12.9836 109.891 12.8143C110.237 12.5127 110.571 12.1938 110.89 11.8657C110.975 11.7776 111.06 11.6886 111.144 11.5986C111.437 11.3045 111.716 10.9975 111.979 10.6799C112.241 10.5867 112.492 10.4633 112.728 10.318C112.626 10.4198 112.522 10.5202 112.419 10.6214C112.189 10.8471 111.95 11.0737 111.684 11.2576C111.656 11.2767 111.673 11.3171 111.707 11.3107C112.046 11.2445 112.362 11.1343 112.658 10.9586C112.959 10.7798 113.224 10.537 113.472 10.2933C113.612 10.2315 113.747 10.1519 113.87 10.0736C113.877 10.0695 113.883 10.0651 113.89 10.061C113.768 10.4381 113.59 10.8651 113.21 10.9995C113.197 11.0039 113.198 11.024 113.213 11.0232C113.533 11.0049 113.791 10.8638 113.994 10.6582C114.157 10.543 114.314 10.421 114.462 10.2882C114.607 10.1595 114.743 10.0215 114.873 9.87864C114.692 10.2302 114.489 10.5739 114.288 10.9138C114.278 10.9318 114.3 10.9563 114.319 10.9437C114.742 10.6634 115.063 10.3018 115.325 9.87424C115.364 9.81129 115.401 9.74731 115.437 9.68284C115.41 9.78373 115.38 9.88397 115.348 9.9837C115.29 10.1642 115.234 10.3452 115.176 10.5256C115.145 10.6229 115.107 10.7179 115.065 10.8114C115.036 10.8782 114.997 10.945 114.991 11.0183C114.99 11.0232 114.996 11.0264 115 11.0253C115.169 10.984 115.326 10.7958 115.446 10.6792C115.513 10.6143 115.575 10.543 115.633 10.4679C115.644 10.9007 115.651 11.3337 115.641 11.7679C115.623 12.5653 115.571 13.3624 115.503 14.1572C115.444 14.8599 115.4 15.5973 114.999 16.2079C114.689 16.6806 114.186 17.0076 113.64 17.1661C113.592 17.1802 113.544 17.1929 113.495 17.2042C112.704 17.3878 111.917 17.1797 111.217 16.8119C111.007 16.7014 110.828 17.0012 111.031 17.1246C111.789 17.5867 112.751 17.744 113.609 17.537C113.582 18.5293 114.082 19.4707 114.579 20.3124C114.858 20.7835 115.136 21.2515 115.333 21.7622C115.5 22.196 115.613 22.6459 115.651 23.1088C115.696 23.6543 115.652 24.2029 115.574 24.7438C115.57 24.7731 115.566 24.8027 115.561 24.8321C115.544 24.9483 115.65 25.0456 115.766 24.9861C116.277 24.7234 116.497 24.1635 116.631 23.6458C116.757 23.1608 116.842 22.6663 116.889 22.1684C116.958 22.3562 117.015 22.5486 117.058 22.7448C117.065 22.7729 117.07 22.801 117.076 22.8291C117.109 22.9931 117.363 22.9815 117.404 22.8291C117.411 22.8015 117.418 22.7739 117.425 22.7461C117.634 21.9181 117.69 21.0545 117.58 20.2078C117.521 19.7625 117.424 19.3231 117.28 18.8969" fill="black"/>
<path fill-rule="evenodd" clip-rule="evenodd" d="M114.588 15.0886C114.501 15.1997 114.344 15.2848 114.168 15.3255C114 15.3643 113.815 15.3627 113.655 15.303L113.641 15.2977C113.521 15.249 113.406 15.1508 113.363 15.0483C113.345 15.0076 113.339 14.9662 113.351 14.9275C113.362 14.8927 113.387 14.8607 113.429 14.8332C113.442 14.8246 113.459 14.824 113.476 14.8269C113.497 14.8304 113.517 14.84 113.53 14.8528C113.598 14.924 113.697 14.9935 113.815 14.9923C113.906 14.9914 113.98 14.9564 114.052 14.9167L114.102 14.8884C114.151 14.8612 114.2 14.8357 114.256 14.824C114.356 14.8031 114.478 14.8413 114.552 14.9043C114.584 14.9318 114.607 14.9641 114.614 14.9989C114.619 15.0282 114.612 15.0587 114.588 15.0886ZM114.068 13.1451C114.267 13.2634 114.57 13.539 114.356 13.8321C114.104 14.0905 113.742 13.7942 113.563 13.6602C113.397 13.5564 113.211 13.8235 113.365 13.9447C114.655 14.8796 115.179 13.176 114.168 13.0061C114.057 12.9874 114.016 13.1086 114.068 13.1451ZM111.825 11.3281L111.883 11.3128L111.941 11.2974L111.98 11.2873C112.251 11.218 112.549 11.157 112.817 11.1868C112.915 11.1977 112.994 11.2515 113.008 11.3518C113.02 11.4364 112.964 11.5456 112.869 11.5606C112.554 11.6105 112.231 11.5943 111.915 11.6457C111.757 11.6713 111.601 11.703 111.444 11.7316C111.325 11.7534 111.201 11.7611 111.081 11.7787L111.109 11.7825C111.118 11.7837 111.116 11.7997 111.106 11.799C111.067 11.7952 111.027 11.7946 110.987 11.7973L110.97 11.7987C110.944 11.8022 110.929 11.7719 110.952 11.7565C111.098 11.6591 111.223 11.5536 111.387 11.4818C111.529 11.4197 111.675 11.3685 111.825 11.3281ZM114.288 11.1788C114.496 10.9731 114.938 11.0522 115.185 11.1462C115.326 11.2 115.461 11.2679 115.572 11.3695L115.583 11.3795L115.6 11.3953C115.676 11.4676 115.76 11.5671 115.748 11.6713C115.746 11.6872 115.737 11.7054 115.719 11.7086C115.62 11.7257 115.522 11.6746 115.431 11.6438L115.37 11.6235C115.279 11.5931 115.188 11.5642 115.094 11.5432C114.977 11.5173 114.858 11.5023 114.739 11.5038C114.617 11.5053 114.487 11.5387 114.372 11.4917C114.243 11.4393 114.177 11.2885 114.288 11.1788ZM112.233 12.8377C112.18 12.8907 112.11 12.9206 112.02 12.9028C111.95 12.8889 111.817 12.82 111.71 12.7138C111.637 12.6412 111.576 12.5504 111.56 12.4452C111.556 12.4208 111.543 12.4052 111.525 12.3953C111.512 12.3875 111.494 12.3836 111.474 12.3856C111.457 12.3872 111.439 12.3932 111.426 12.401C111.399 12.416 111.389 12.4372 111.387 12.4531C111.366 12.6062 111.426 12.7581 111.52 12.8861C111.647 13.059 111.834 13.1856 111.944 13.2153C112.132 13.266 112.329 13.2256 112.475 13.0978C112.592 12.9955 112.652 12.8623 112.707 12.7253L112.718 12.6988C112.73 12.6677 112.743 12.6368 112.756 12.6063C112.782 12.5451 112.774 12.4922 112.748 12.451C112.72 12.4054 112.668 12.3732 112.61 12.3634C112.556 12.3542 112.499 12.3642 112.454 12.3963C112.415 12.4234 112.384 12.4663 112.373 12.5298C112.356 12.6329 112.314 12.7513 112.241 12.8295L112.233 12.8377ZM115.453 12.2404C115.409 12.2181 115.375 12.2114 115.327 12.2256C115.3 12.2335 115.273 12.2486 115.253 12.2689C115.232 12.2891 115.217 12.3141 115.211 12.3419C115.197 12.4105 115.159 12.4747 115.104 12.5165C115.057 12.5523 114.999 12.5712 114.933 12.5605C114.863 12.549 114.795 12.5047 114.749 12.4525C114.736 12.438 114.726 12.4218 114.715 12.4054L114.709 12.3955C114.686 12.3587 114.664 12.3244 114.633 12.2974C114.621 12.2871 114.603 12.2799 114.585 12.2799C114.578 12.2799 114.571 12.2811 114.564 12.2831C114.494 12.3521 114.481 12.4044 114.483 12.4563C114.485 12.5107 114.507 12.5658 114.543 12.6172C114.626 12.7378 114.784 12.8367 114.89 12.8591C115.036 12.8898 115.181 12.8529 115.297 12.7732C115.416 12.6912 115.505 12.5639 115.533 12.4204C115.539 12.3859 115.536 12.3486 115.523 12.3162C115.51 12.2846 115.487 12.2575 115.453 12.2404Z" fill="black"/>
</svg>
