<svg width="20" height="21" viewBox="0 0 20 21" fill="none" xmlns="http://www.w3.org/2000/svg">
<path d="M9.99984 15.5657C11.8408 15.5657 13.3332 14.0341 13.3332 12.1447C13.3332 10.2553 11.8408 8.72363 9.99984 8.72363C8.15889 8.72363 6.6665 10.2553 6.6665 12.1447C6.6665 14.0341 8.15889 15.5657 9.99984 15.5657Z" stroke="#171717" stroke-width="1.3" stroke-miterlimit="10" stroke-linecap="round" stroke-linejoin="round"/>
<path d="M8.7002 12.2302L9.24186 12.7862C9.4002 12.9487 9.65853 12.9487 9.81686 12.7947L11.3002 11.3921" stroke="#171717" stroke-width="1.3" stroke-linecap="round" stroke-linejoin="round"/>
<path d="M6.66685 18.8158H13.3335C16.6835 18.8158 17.2835 17.4388 17.4585 15.7625L18.0835 8.92041C18.3085 6.83357 17.7252 5.13159 14.1668 5.13159H5.83351C2.27518 5.13159 1.69185 6.83357 1.91685 8.92041L2.54185 15.7625C2.71685 17.4388 3.31685 18.8158 6.66685 18.8158Z" stroke="#171717" stroke-width="1.3" stroke-miterlimit="10" stroke-linecap="round" stroke-linejoin="round"/>
<path d="M6.6665 5.13162V4.44741C6.6665 2.9336 6.6665 1.71057 9.33317 1.71057H10.6665C13.3332 1.71057 13.3332 2.9336 13.3332 4.44741V5.13162" stroke="#171717" stroke-width="1.3" stroke-miterlimit="10" stroke-linecap="round" stroke-linejoin="round"/>
<path d="M18.0418 9.40784C16.6001 10.4855 15.0001 11.2381 13.3418 11.6657" stroke="#171717" stroke-width="1.3" stroke-miterlimit="10" stroke-linecap="round" stroke-linejoin="round"/>
<path d="M2.18311 9.63879C3.57477 10.6138 5.09144 11.3066 6.66644 11.7" stroke="#171717" stroke-width="1.3" stroke-miterlimit="10" stroke-linecap="round" stroke-linejoin="round"/>
</svg>
