<svg width="296" height="297" viewBox="0 0 296 297" fill="none" xmlns="http://www.w3.org/2000/svg">
<path d="M148.429 0.695175C230.06 0.867688 296.095 67.1818 295.922 148.812C295.75 230.442 229.435 296.477 147.805 296.305C66.1745 296.132 0.140125 229.817 0.312638 148.187C0.485381 66.5572 66.7994 0.522893 148.429 0.695175ZM166.572 49.4172C165.564 44.6076 160.774 41.607 155.872 42.7159C150.97 43.825 147.812 48.6237 148.819 53.4334C149.811 58.1712 149.991 64.6684 149.279 72.5311C147.971 72.4466 146.653 72.393 145.327 72.3743L144.381 72.3665C104.001 72.2814 71.2005 103.16 71.1193 141.336L71.1232 142.229C71.3621 163.391 81.6651 182.281 97.726 194.817C88.4737 205.592 78.6159 213.809 68.5038 218.599L67.3611 219.125C63.4164 220.889 61.2025 225.114 62.0585 229.243C62.915 233.371 66.6069 236.271 70.9003 236.187L228.182 233.101C233.186 233.002 237.259 228.923 237.28 223.988C237.3 219.207 233.509 215.377 228.722 215.232L228.255 215.229L100.372 217.737C104.873 213.556 109.152 208.965 113.202 204.089C122.311 208.134 132.448 210.456 143.144 210.606L144.089 210.614C184.154 210.699 216.758 180.301 217.344 142.538L217.351 141.645C217.416 110.977 196.346 84.9302 167.121 75.8266C168.176 65.8371 168.108 56.7551 166.572 49.4172ZM164.248 93.8187C185.224 101.39 199.396 120.474 199.351 141.607C199.294 168.903 175.533 192.681 144.127 192.614C137.076 192.599 130.415 191.383 124.325 189.198C133.005 176.35 140.56 162.123 146.815 147.753C154.785 129.44 160.749 110.654 164.248 93.8187ZM144.343 90.3664C145.081 90.368 145.815 90.3826 146.544 90.4101C143.32 106.011 137.732 123.7 130.187 141.035C124.116 154.985 116.844 168.548 108.645 180.524C96.5399 170.962 89.0869 156.707 89.1192 141.374C89.1774 114.078 112.939 90.3003 144.343 90.3664Z" fill="url(#paint0_linear_2227_14650)"/>
<defs>
<linearGradient id="paint0_linear_2227_14650" x1="-21" y1="149" x2="313.5" y2="149" gradientUnits="userSpaceOnUse">
<stop stop-color="#465CEB"/>
<stop offset="1" stop-color="#710CB7"/>
</linearGradient>
</defs>
</svg>
