<svg width="146" height="64" viewBox="0 0 146 64" fill="none" xmlns="http://www.w3.org/2000/svg">
<path d="M1 49.7561L144.78 49.7561" stroke="black" stroke-width="2" stroke-linecap="round"/>
<path fill-rule="evenodd" clip-rule="evenodd" d="M39.1806 37.272C39.1231 37.8715 39.2406 38.4441 39.5206 38.9281L39.6117 39.0856L39.4383 39.1462C39.1228 39.2565 38.7719 39.3102 38.3656 39.3102C37.9474 39.3102 37.5126 39.252 37.1632 39.2052L36.9395 39.1752L37.0494 38.981C37.1378 38.8249 37.1541 38.6357 37.1715 38.4354C37.1761 38.3816 37.1809 38.3259 37.1872 38.2709C37.5183 35.3127 37.9368 32.3159 38.3415 29.4177C38.448 28.6551 38.5581 27.8665 38.6649 27.0908L38.9714 27.1026C39.0538 28.5384 39.1338 29.9985 39.2112 31.4105C39.2452 32.0315 39.2792 32.6524 39.3135 33.2732C39.4358 34.8429 39.3936 36.1138 39.1806 37.272M39.0555 55.0113C39.5056 55.0113 39.9565 54.9644 40.3957 54.872C41.7701 54.5836 43.0187 53.9032 44.0812 53.288C44.1354 53.2573 44.1905 53.2265 44.247 53.1949C44.663 52.9623 45.1806 52.6728 45.505 52.3197C45.8609 51.9323 45.9222 51.5462 45.6978 51.1048L45.6623 51.035L45.6994 50.9659C45.9317 50.5336 45.9144 49.9986 45.6573 49.6651L45.4413 49.3849L45.7965 49.4225C46.1547 49.4605 46.5158 49.512 46.8649 49.5618C47.2523 49.6171 47.6529 49.6742 48.0475 49.7124L48.1572 49.7231L48.1824 49.8287C48.1964 49.8875 48.2137 49.9232 48.3355 49.9232C48.441 49.9232 48.5828 49.8923 48.733 49.8596C48.9193 49.819 49.1305 49.773 49.3341 49.773C49.4237 49.773 49.5043 49.7815 49.5805 49.7991L49.6248 49.8093L49.6563 49.8416C49.6765 49.8623 49.7109 49.8751 49.746 49.8751C49.7725 49.8751 49.7971 49.8677 49.8136 49.8549L49.8634 49.816L49.9265 49.8229C51.0264 49.9436 51.9749 50.1555 52.826 50.4706L52.8298 50.472L52.8483 50.48C53.156 50.6128 53.4742 50.7501 53.764 50.7501C53.9758 50.7501 54.1478 50.678 54.3054 50.5234L54.3499 50.4797L54.4127 50.4791C55.0499 50.4732 55.341 49.7305 55.3813 49.2326L55.3863 49.17L55.4349 49.1292C56.5453 48.1976 57.2009 46.9182 57.4391 45.2178C57.656 43.6689 57.4895 42.0359 57.2979 40.6426C56.8548 37.0321 56.3926 33.7954 55.2179 30.7257L55.163 30.5822L55.3092 30.5296C55.8166 30.3474 56.2044 30.1299 56.4948 29.8648L56.5149 29.8464L56.5402 29.836C56.9563 29.6651 57.1601 29.0342 57.2126 28.845L57.2169 28.8297L57.2242 28.8156C57.3091 28.6528 57.3287 28.4263 57.2779 28.1942L57.2725 28.1692L57.2756 28.1438C57.303 27.9235 57.212 27.6931 57.1157 27.4491C57.0716 27.3377 57.0261 27.2225 56.9929 27.1078C56.8786 26.78 56.7644 26.4463 56.654 26.1236C56.4062 25.3996 56.15 24.6509 55.877 23.9226L55.8397 23.823L55.9219 23.7543C56.0623 23.6371 56.0155 23.4991 55.813 23.1692C55.7652 23.0913 55.7199 23.0175 55.6855 22.9449C55.4261 22.4967 55.148 22.0664 54.8588 21.6659L54.8529 21.6576L54.8481 21.6487C53.3645 18.8787 50.7327 17.3532 47.4377 17.3532L47.3706 17.3533L47.3334 17.331C46.7159 16.9597 46.275 16.3228 45.9857 15.3836L45.9765 15.3537L45.98 15.3226C45.99 15.2361 46.0008 15.1226 45.9971 15.0125C45.9877 14.7336 45.8783 14.4847 45.6971 14.3297C45.3533 14.0355 44.8314 14.0109 44.3263 14.0109L44.2537 14.011C43.6079 14.0128 43.152 14.1249 42.8188 14.3638C42.4318 14.6413 42.2179 15.0893 42.1648 15.7334C42.149 15.9261 42.1495 16.1258 42.15 16.3189L42.1502 16.3728L42.1437 16.3942C42.0972 16.5472 42.0429 16.6943 41.9821 16.8314L41.9195 16.9724L41.7773 16.9088C41.6853 16.8677 41.5687 16.8466 41.4207 16.8442C41.378 16.8432 41.3364 16.8428 41.2945 16.8428C40.9509 16.8428 40.5833 16.8741 40.2278 16.9044C39.96 16.9273 39.683 16.9509 39.415 16.9614L39.4113 16.9616C39.4113 16.9616 39.3743 16.9613 39.3577 16.9613C38.7061 16.9613 38.2337 17.0638 37.8712 17.2837C37.4808 17.5205 37.2001 17.9006 36.9879 18.4798C35.8495 21.7999 35.3814 25.3761 34.9686 28.5311C34.7344 30.1811 34.6632 31.8725 34.5943 33.5083C34.5216 35.2348 34.4464 37.0202 34.1802 38.7654L34.1592 38.9033L34.0178 38.8942C33.3957 38.8541 32.7235 38.7676 32.0117 38.6761C30.9303 38.537 29.8122 38.3932 28.7312 38.3932C27.2198 38.3932 26.0738 38.6905 25.2283 39.302C24.6389 39.8572 24.334 40.609 24.3465 41.4766C24.3642 42.7025 25.0128 44.0577 25.9989 44.9293L26.0026 44.9327C27.249 46.1098 29.5241 47.1307 32.7647 47.9671C35.7447 48.7363 38.8271 49.1543 40.3992 49.3349L40.7883 49.3797L40.4725 49.608C40.3447 49.7004 40.228 49.7817 40.1159 49.8567L40.0436 49.905L39.9644 49.8687C39.7384 49.7651 39.595 49.7434 39.5143 49.7434C39.4428 49.7434 39.3564 49.7589 39.3517 49.8329C39.3486 49.8814 39.3831 49.9534 39.4559 49.9625L39.8427 50.0107L39.5269 50.2359C39.316 50.3863 39.0012 50.5675 38.6368 50.7774C37.4445 51.4642 35.6428 52.502 35.9526 53.4134L35.973 53.4732L35.9442 53.5297C35.8609 53.6928 35.8538 53.8443 35.9225 53.9927C36.0696 54.3107 36.5298 54.5522 36.9206 54.6504L36.9273 54.6521L36.9339 54.6544C37.6139 54.8912 38.3278 55.0113 39.0555 55.0113" fill="white"/>
<path fill-rule="evenodd" clip-rule="evenodd" d="M40.3638 49.1565C40.3168 49.1087 40.2971 49.046 40.341 48.9725C40.5107 48.7558 40.8627 48.9039 41.0817 48.954C41.1644 48.8852 41.2465 48.8162 41.3256 48.7434C41.2981 48.573 41.503 48.4597 41.5872 48.3283C41.6698 48.2315 41.7476 48.1215 41.8468 48.0403C42.0883 47.852 42.4231 47.9794 42.7035 47.9708C42.9194 47.6962 43.1417 47.4303 43.3471 47.1466C43.1104 46.749 43.0937 46.283 43.1723 45.8398C39.5412 44.4625 36.3983 41.8547 32.4712 41.252C32.3362 41.2295 32.2604 41.0654 32.2941 40.9451C32.568 40.2916 36.5046 41.9778 37.093 42.2832C38.8285 43.114 40.4542 44.1495 42.141 45.0632C42.4927 45.25 42.8796 45.3504 43.2642 45.4475C43.8552 43.5084 44.855 41.7308 45.6215 39.8613C45.5718 39.7751 45.5294 39.6846 45.4934 39.5915C45.5189 40.6197 44.5186 40.6053 44.3805 39.63C44.4375 40.1384 44.0529 41.2272 43.4978 40.5128C43.3676 40.3333 43.3214 40.1035 43.2994 39.8716C43.2709 40.0319 43.2385 40.1915 43.2026 40.3505C43.0601 40.6655 42.6711 40.2825 42.5808 40.1181C42.5286 40.1088 42.4799 40.085 42.4442 40.0559C41.4627 40.1922 40.3066 40.1844 39.5864 39.4098C38.3649 39.8782 37.0129 39.4585 35.7775 39.2715C33.2635 38.9825 30.7395 38.5421 28.2029 38.5757C27.0705 38.6414 25.7344 38.8242 25.0181 39.7902C24.0992 41.1827 24.6186 43.0634 25.6322 44.2688C28.0705 47.3549 36.4398 48.6969 40.3638 49.1565M40.2953 50.2681C40.2509 50.2563 40.2062 50.2454 40.1618 50.235C39.4501 50.8274 36.0984 52.3655 36.3533 53.2842C36.4434 53.3985 36.6591 53.4245 36.7955 53.4614C37.0329 53.5256 37.2727 53.5813 37.5148 53.6253C38.2974 53.7676 39.1079 53.7924 39.8894 53.63C40.1769 53.5863 40.4365 53.4637 40.6983 53.3451C41.5446 52.973 42.4765 52.5619 43.3186 52.1928C44.3885 51.7688 46.265 50.9333 45.4932 49.5233C44.762 50.3455 43.8339 50.2737 43.3664 49.2518C43.2051 48.9416 43.0644 48.5235 42.6858 48.3981C42.486 48.2631 42.2306 48.235 42.0637 48.3854C42.0516 48.3667 42.0408 48.3404 42.035 48.3172C41.8468 48.5849 41.6845 48.8668 41.464 49.1115C41.5397 49.1156 42.3279 49.6988 42.0953 49.6991C41.8154 49.5549 41.5374 49.4349 41.2352 49.3572C41.0162 49.5774 40.7754 49.7822 40.5258 49.9716C40.7682 50.1316 40.9859 50.3275 41.161 50.5401C41.1761 50.5589 41.1577 50.5831 41.1351 50.573C40.8632 50.4519 40.5836 50.3455 40.2953 50.2681M36.6876 54.2408C39.4098 55.4632 42.2917 54.1021 44.6131 52.6509C45.1489 52.3518 45.8536 51.9279 45.7453 51.2238C45.3507 51.801 44.7001 52.1296 44.0757 52.4145C43.0267 52.8886 41.9708 53.3474 40.9191 53.8156C40.8198 54.145 40.3448 54.1577 40.0578 54.2308C38.78 54.4785 37.4065 54.3554 36.2039 53.8614C36.2735 54.0674 36.5012 54.162 36.6876 54.2408M47.5486 49.4811C47.6159 49.4897 47.6832 49.4975 47.7504 49.5051C47.7435 49.4162 47.7971 49.3272 47.8834 49.2996C47.8446 49.111 47.8303 48.9161 47.8511 48.7247C47.7386 49.0152 47.3756 48.927 47.145 48.8433C46.8156 48.7538 46.4883 48.6575 46.1628 48.5548C46.0344 48.7932 45.8983 49.0281 45.7312 49.244C46.3397 49.2981 46.9425 49.4055 47.5486 49.4811M47.8164 48.5674C47.8326 48.6016 47.8557 48.6377 47.8562 48.6787C47.8726 48.5374 47.9047 48.3978 47.9535 48.2641C47.9078 48.3652 47.8621 48.4663 47.8164 48.5674M48.2005 47.8097C48.4998 47.4197 49.0531 47.1009 49.5645 47.2096C49.5974 47.2167 49.5982 47.2695 49.5645 47.2761C48.8775 47.3694 48.2742 47.9142 48.2503 48.6185C48.1961 48.9373 48.4179 49.2503 48.3432 49.5562C48.3581 49.5572 48.373 49.558 48.3876 49.559C48.393 49.5794 48.3979 49.5976 48.4044 49.6136C48.3301 49.626 48.3083 49.7453 48.3959 49.7666C48.4477 49.7792 48.5019 49.7858 48.5571 49.7885C48.8372 49.713 49.1327 49.6955 49.4005 49.5837C49.6654 49.4667 49.5992 49.1378 49.6926 48.91C49.7612 48.6473 49.84 48.3857 49.9394 48.1336C49.9465 48.1134 49.974 48.118 49.9763 48.1384C50.0464 48.6413 50.0441 49.1527 50.0272 49.6596C50.1191 49.669 50.2105 49.6793 50.3022 49.6907C50.2962 49.5491 50.7211 47.8242 50.945 48.2669C50.8323 48.7535 50.8187 49.2619 50.8066 49.7627C51.4713 49.8722 52.1262 50.0353 52.7635 50.2573C53.2125 50.3933 53.7465 50.7958 54.1825 50.4319C54.5201 50.1529 54.6338 49.6659 54.602 49.2516C54.1629 46.8 50.6955 46.5136 48.6485 46.6949C48.4552 47.1408 48.2582 47.5853 48.0588 48.0287C48.1001 47.9524 48.1473 47.879 48.2005 47.8097M55.1819 49.2038C55.2194 48.6471 55.1257 47.9541 54.7131 47.5392C53.7689 46.7411 52.4467 46.4901 51.2667 46.2011C50.717 46.0927 50.1599 46.0206 49.6005 45.9847C49.402 45.969 49.1499 46.014 49.0097 45.8517C48.9376 46.0226 48.8644 46.1933 48.7912 46.3639C51.1404 46.0562 56.0415 47.1251 54.669 50.3422C54.9596 50.0274 55.1522 49.6442 55.1819 49.2038M43.5109 47.3636C43.4028 47.6336 43.2706 47.8907 43.0978 48.1258C43.2942 48.2542 43.4544 48.4441 43.5674 48.6481C44.2914 50.5417 45.0657 49.5274 46.0277 48.5113C45.2136 48.2042 44.1353 47.9741 43.5109 47.3636M55.5619 48.8185C57.4446 46.9593 57.8099 43.8621 57.1144 41.4275C57.0525 40.5247 56.7367 39.6643 56.4538 38.8096C55.5529 36.2167 54.3681 33.7222 52.947 31.367C51.184 31.8511 49.4241 32.3481 47.657 32.8164C47.4136 32.8692 47.17 32.9736 46.9201 32.9888C46.8308 33.0457 46.7412 33.1084 46.6482 33.1634C46.7835 33.8261 46.6588 34.5026 46.6272 35.1693C46.5985 35.6941 46.6552 36.2081 46.7248 36.7274C46.8025 37.4828 47.1227 39.9399 46.4811 40.3897C46.2636 40.4946 46.0693 40.1839 45.9756 40.2693C45.8911 40.2104 45.8123 40.1338 45.7481 40.0494C45.5004 40.8503 45.0955 41.5933 44.8454 42.395C44.5127 43.5731 43.42 45.4801 43.6626 46.6038C43.8503 47.2978 44.6714 47.4475 45.2639 47.6743C45.9486 47.9124 46.6411 48.1311 47.3448 48.3086C47.6883 47.5797 48.0167 46.844 48.3389 46.1055C49.8115 42.6984 51.1157 39.2201 52.2813 35.7005C52.3031 35.6223 52.5712 34.7759 52.6202 35.012C52.6243 34.9878 52.6549 34.9251 52.6664 34.9787C52.4687 35.8051 52.2683 36.6313 52.0513 37.4532C52.5843 37.3786 53.1573 37.3496 53.6451 37.6107C53.6703 37.6241 53.6518 37.6572 53.6269 37.6532C53.0492 37.5531 52.4921 37.7422 51.9373 37.878C51.1581 40.5295 50.1527 43.1137 49.0885 45.6656C49.4177 45.5607 49.7997 45.6768 50.1432 45.6851C51.2251 45.7969 52.2947 46.0335 53.3167 46.4016C54.6015 46.818 55.5098 47.361 55.5619 48.8185M56.5984 29.4693C56.9147 29.1288 57.1632 28.694 57.1152 28.2326C56.9252 27.9793 56.8623 27.6488 56.7516 27.356C56.319 26.1309 55.9175 24.8964 55.4466 23.6844C54.4451 23.9924 53.4598 24.3617 52.5304 24.8469C52.3594 24.9341 52.1902 25.0246 52.023 25.1184C51.8479 25.2165 51.6569 25.3869 51.4469 25.3381C51.6764 25.663 52.1491 26.001 52.2289 26.3764C52.2461 26.4952 52.1619 26.6055 52.0325 26.5789C50.0071 28.0172 47.9155 29.4251 46.001 31.0272C44.5674 32.1618 43.4667 33.0821 42.9751 34.9231C42.6436 36.1156 42.6426 37.362 42.6914 38.5881C42.7009 38.8265 42.7012 39.0705 42.7204 39.3104C42.6917 39.4899 42.7463 39.8552 42.9481 39.8618C42.9435 39.9053 42.9291 39.9455 42.9063 39.9809C42.9127 39.9894 42.9194 39.9975 42.9263 40.0059C42.9363 39.9568 42.9461 39.908 42.9553 39.859C43.1125 39.1633 43.1335 38.356 43.1073 37.6153C43.0963 37.4029 43.4221 37.408 43.4403 37.6153C43.4893 38.1753 43.5384 38.7352 43.5874 39.295C43.6462 39.6578 43.5535 40.1323 43.8436 40.4081C44.1386 40.1356 44.0411 39.5981 44.0267 39.2464C44.0036 38.6728 43.9787 38.0994 43.9574 37.5258C43.9507 37.344 44.2519 37.2972 44.286 37.482C44.3828 38.0089 44.4875 38.5343 44.6003 39.0581C44.6683 39.2606 44.715 40.1692 45.0549 40.0115C45.2575 39.8732 45.1114 39.0624 45.1381 38.7939C45.1255 38.2625 45.1181 37.7318 45.0791 37.2017C45.0631 36.9878 45.4115 36.9423 45.4593 37.1511C45.5368 37.4891 45.611 37.8271 45.6783 38.1674C45.8259 38.7411 45.7723 39.5187 46.3052 39.9C46.514 38.4099 46.2136 36.9301 46.1715 35.4454C46.1966 34.9643 46.2793 34.488 46.3522 34.0127C46.4328 33.4871 46.4798 32.9149 46.2911 32.4081C46.3427 32.181 46.5455 32.7951 46.5645 32.8462C46.7173 32.5453 47.0893 32.5221 47.3835 32.4283C48.0374 32.2167 48.7073 32.0571 49.3689 31.8691C51.1235 31.3819 52.8801 30.9023 54.6371 30.4237C55.3391 30.2296 56.078 29.9997 56.5984 29.4693M39.0285 37.3953C39.2706 36.0834 39.264 34.7542 39.1605 33.4279C39.0468 31.371 38.9364 29.3136 38.8183 27.257C38.3056 30.9794 37.759 34.6975 37.341 38.4319C37.3112 38.6918 37.3158 38.9668 37.1846 39.1987C37.9097 39.2957 38.6825 39.3936 39.3874 39.1471C39.0781 38.6124 38.969 38.0036 39.0285 37.3953M35.3651 28.1552C34.817 31.6832 35.1297 35.2732 34.598 38.7972C35.3356 38.8799 36.0676 39.0022 36.7975 39.1367C36.7176 38.7014 36.8691 38.2519 36.8953 37.8135C37.2917 34.6866 37.7294 31.5619 38.3094 28.4624C38.4517 27.7206 38.5954 26.9819 38.7602 26.2442C38.7353 25.7975 38.7135 25.3507 38.6991 24.9037C37.8943 24.3979 36.9867 24.0705 36.0481 23.9054C35.7944 25.3181 35.541 26.7298 35.3651 28.1552M41.7104 17.0688C41.7425 17.0139 41.7731 16.9578 41.8023 16.9009C41.7032 16.9047 41.6067 16.9083 41.5091 16.9244C41.5135 17.0814 41.5048 17.2397 41.503 17.398C41.5518 17.2822 41.6473 17.1765 41.7104 17.0688M25.1555 39.1777C27.4966 37.4757 31.3421 38.56 34.0542 38.735C34.5713 35.3455 34.3603 31.9007 34.8422 28.5056C35.2861 25.1139 35.7541 21.6748 36.8689 18.4251C37.3289 17.1686 38.1248 16.7955 39.4352 16.8056C40.1002 16.7796 40.8034 16.6731 41.4496 16.6883C41.5913 16.6906 41.7394 16.7093 41.8673 16.7664C42.047 16.3614 42.1446 15.9266 42.1938 15.4884C42.1969 15.4606 42.2324 15.4556 42.2429 15.4821C42.3949 15.8636 42.411 16.28 42.3284 16.6795C42.2686 16.9656 41.9125 18.0919 41.4989 17.6513C41.466 18.5753 41.6691 19.6788 42.5746 20.1584C44.1569 20.8481 46.344 20.2201 47.2606 18.7563C47.4377 18.4638 47.5905 18.1526 47.7866 17.8717C46.42 17.4849 45.6529 15.8479 45.9748 14.6013C46.1738 15.5709 46.5366 16.6542 47.44 17.1972C50.7299 17.1899 53.4651 18.6878 55.0107 21.5729C55.3131 21.9918 55.5927 22.4272 55.8489 22.8701C55.9868 23.1664 56.3907 23.5785 56.0479 23.8647C56.4438 24.921 56.795 25.9919 57.1663 27.0565C57.2682 27.4112 57.5013 27.7833 57.4548 28.1562C57.5052 28.386 57.5028 28.6578 57.3876 28.8788C57.2782 29.2727 57.0328 29.8025 56.6258 29.9697C56.2805 30.2849 55.8438 30.5021 55.3884 30.6657C56.603 33.839 57.0654 37.2613 57.4769 40.6142C57.8803 43.5473 58.0885 47.1153 55.5611 49.2351C55.5121 49.8416 55.1522 50.6145 54.4405 50.6211C53.9476 51.1049 53.3468 50.8395 52.7981 50.6029C51.8721 50.26 50.9008 50.0699 49.9358 49.964C49.8323 50.0449 49.6639 50.0315 49.5717 49.9372C48.9871 49.8025 48.1769 50.348 48.0588 49.8538C47.305 49.7807 46.5594 49.6437 45.8064 49.5638C46.1238 49.9754 46.1009 50.5824 45.8619 51.0271C46.4706 52.2242 45.0526 52.9174 44.1856 53.4086C43.0152 54.0861 41.7928 54.729 40.4542 55.0099C39.2773 55.2574 38.0445 55.1823 36.9089 54.7869C36.3122 54.637 35.4789 54.1448 35.8329 53.4513C35.3841 52.1316 38.5358 50.7642 39.4629 50.1033C39.084 50.056 39.0701 49.2697 40.0557 49.7216C40.1749 49.6419 40.2919 49.5597 40.4077 49.4761C36.4211 49.018 28.8076 47.7577 25.9223 45.0334C24.3373 43.6325 23.4227 40.799 25.1555 39.1777" fill="black"/>
<path fill-rule="evenodd" clip-rule="evenodd" d="M44.6909 6.59245C40.8863 6.40538 39.1695 9.08373 39.0584 10.28C38.9814 11.1104 39.4721 12.0676 39.4721 12.8096C39.4721 13.1884 39.0082 14.0016 39.2242 14.5536C39.7048 15.7824 40.7224 17.1461 42.0191 17.1461C43.3158 17.1461 45.0034 17.5046 46.4363 15.4534C46.5707 15.2609 48.2711 14.167 48.4363 13.1275C48.8478 10.5384 47.4056 6.72593 44.6909 6.59245Z" fill="white"/>
<path fill-rule="evenodd" clip-rule="evenodd" d="M44.8703 4.92564C44.7342 4.77003 44.5045 4.70779 44.3005 4.71984C44.004 4.73741 43.7462 4.92037 43.4513 4.93392C43.142 4.94823 42.8436 4.84106 42.5336 4.89075C42.3436 4.92137 42.1553 5.00946 42.0336 5.15804C41.6119 5.03732 41.154 5.19719 40.8855 5.5463C40.5541 5.49485 40.1937 5.71423 40.0923 6.03344C39.6713 6.047 39.274 6.38506 39.227 6.80871C39.0588 6.85313 38.9128 6.96911 38.8232 7.12243C38.719 7.30012 38.7017 7.50391 38.7205 7.70419C38.5224 7.80533 38.4218 8.02267 38.3954 8.25257C38.2145 8.38759 38.1359 8.63029 38.1728 8.85943C38.0342 8.93748 37.9627 9.11919 37.9634 9.28132C37.9642 9.43265 38.0043 9.5667 37.9479 9.71274C37.8976 9.84282 37.8795 9.95123 37.9072 10.0875L37.91 10.1008C37.9149 10.123 37.919 10.1443 37.9227 10.1653C37.8852 10.1982 37.8535 10.2394 37.8297 10.2873C37.7429 10.4625 37.7558 10.6623 37.822 10.8399C37.793 10.9531 37.7967 11.0726 37.8396 11.1814C37.7593 11.2969 37.7171 11.4387 37.7295 11.5857C37.7434 11.7504 37.8186 11.8979 37.9327 12.0069C37.9023 12.2318 37.9938 12.4748 38.1592 12.6332C38.1357 12.7678 38.1559 12.909 38.2296 13.0366C38.2821 13.1276 38.3528 13.1954 38.4344 13.2426C38.4317 13.3177 38.4419 13.3945 38.4669 13.4715C38.5016 13.5783 38.5604 13.6767 38.6377 13.756C38.5916 14.0511 38.7683 14.3785 39.0793 14.4613C39.1054 14.4683 39.1303 14.4715 39.1542 14.472C39.1851 14.7558 39.2526 15.0357 39.3571 15.3015C39.6226 15.9783 40.1056 16.5701 40.7354 16.9393C41.0469 17.1218 41.3968 17.2468 41.754 17.299C42.011 17.3366 42.2582 17.3273 42.5163 17.3017C42.8401 17.2694 43.1654 17.2209 43.4802 17.1376L43.5308 17.1241C43.6613 17.0892 43.7989 17.0489 43.9119 16.9785C44.0384 16.8997 44.1041 16.7782 44.1333 16.6351C44.1495 16.5555 44.0991 16.4699 44.0119 16.4682L44.0063 16.4682C43.9872 16.4686 43.9683 16.4679 43.9491 16.4667L43.9347 16.4657H43.934C43.933 16.4655 43.9325 16.4655 43.9315 16.4655C43.9229 16.4642 43.9147 16.4617 43.9064 16.4605C43.8105 16.4443 43.7266 16.4603 43.6365 16.4903L43.6252 16.4941C43.4736 16.5463 43.3233 16.5947 43.1666 16.6306C43.0047 16.6675 42.8408 16.6969 42.6764 16.72L42.6601 16.722L42.6551 16.7227L42.6526 16.723V16.723C42.6521 16.723 42.6516 16.723 42.6511 16.7232L42.6026 16.7293V16.7293C42.5644 16.7338 42.5263 16.7378 42.4882 16.7418C42.4179 16.7488 42.3476 16.7544 42.2773 16.7584C41.0642 16.8266 40.0453 15.8717 39.7378 14.7267C39.6264 14.3124 39.6191 13.899 39.652 13.4854C39.6625 13.4553 39.6688 13.4219 39.6686 13.3853C39.6686 13.3662 39.6675 13.3474 39.6663 13.3283C39.7072 12.9282 39.7782 12.5279 39.8227 12.1264C39.8746 11.6573 39.9035 11.1855 39.893 10.7134C39.8877 10.4802 39.8628 10.2493 39.8302 10.0185L39.8184 9.93551V9.93551C39.9659 9.90672 40.103 9.8368 40.2122 9.73558C40.4491 9.87236 40.7557 9.88449 40.9895 9.74005C41.2516 9.90436 41.6177 9.91927 41.8816 9.75862C42.0411 9.87246 42.242 9.92158 42.4393 9.87836C42.528 9.85894 42.6163 9.8169 42.6918 9.7587C42.7458 9.76821 42.8004 9.7719 42.8547 9.76906L42.866 9.77534V9.77534C42.9912 9.84134 43.13 9.88479 43.2728 9.87994C43.3785 9.87638 43.4874 9.85552 43.5882 9.81607C43.696 9.88107 43.8138 9.92544 43.9399 9.94136C44.1241 9.96457 44.3228 9.92384 44.476 9.81938C44.7559 9.9788 45.1002 10.0033 45.4023 9.89623C45.4642 10.001 45.5498 10.0914 45.6501 10.161C45.6321 10.2253 45.6264 10.2939 45.6326 10.3598C45.6427 10.4683 45.6699 10.5656 45.7144 10.653C45.6675 10.7506 45.6534 10.8704 45.6797 10.9907C45.7171 11.1622 45.8169 11.3114 45.9461 11.4276C45.9575 11.7013 46.1076 11.958 46.352 12.1005C46.3643 12.1078 46.3766 12.1136 46.3889 12.1189C46.3997 12.1337 46.4126 12.1467 46.4273 12.1576C46.5827 12.3011 46.8286 12.2897 47.0234 12.2086C47.0271 12.2088 47.0309 12.2091 47.0347 12.2092C47.1042 12.211 47.1517 12.1838 47.1798 12.1439C47.2081 12.1455 47.2363 12.1485 47.2646 12.1537C47.3681 12.1731 47.4815 12.2102 47.5751 12.2584C47.8181 12.3834 47.9306 12.6042 47.9642 12.8698C48.0008 13.1594 47.9175 13.4545 47.6933 13.6505C47.5844 13.7459 47.4451 13.8056 47.3035 13.8307C47.1472 13.8586 46.98 13.7901 46.8645 13.9244C46.8414 13.951 46.8256 13.9881 46.8382 14.024C46.8773 14.1359 46.9418 14.1789 47.0427 14.1944C46.8969 14.3673 46.7473 14.5345 46.5816 14.6898C46.4024 14.8582 46.2172 15.0214 46.0555 15.2071C45.8846 15.4036 45.7302 15.6119 45.623 15.8503C45.5618 15.9874 45.5126 16.1287 45.4596 16.269L45.4501 16.2934C45.3911 16.4425 45.3125 16.5862 45.4034 16.7418C45.4395 16.803 45.5214 16.8623 45.5967 16.8525C45.8088 16.8254 45.8798 16.6821 45.9451 16.4954C45.9943 16.3543 46.0319 16.2092 46.0849 16.0694C46.0948 16.0436 46.1056 16.0179 46.1169 15.9925C46.2392 16.0266 46.3737 15.9995 46.4828 15.9298C46.5994 15.9815 46.7286 16.0072 46.8534 16.005C47.0205 16.0021 47.1731 15.9557 47.3043 15.872C47.3148 15.8692 47.3253 15.8666 47.3357 15.8636C47.5353 15.94 47.7691 15.9264 47.9498 15.8025C48.0669 15.7222 48.1469 15.6152 48.1924 15.4959C48.3436 15.493 48.4932 15.4394 48.6016 15.3322C48.7011 15.2337 48.7593 15.1066 48.7765 14.9746C48.9067 14.9488 49.0287 14.8859 49.1245 14.7799C49.2044 14.6914 49.2529 14.5786 49.2694 14.4616C49.4279 14.4163 49.5709 14.3128 49.649 14.1685C49.7216 14.0342 49.7321 13.8884 49.6966 13.7559L49.7058 13.7426V13.7426C49.8691 13.6572 49.9937 13.5173 50.0065 13.3175C50.0101 13.2606 50.004 13.2036 49.9886 13.1498C49.9942 13.0896 49.9906 13.0294 49.9748 12.9712C50.1944 12.7576 50.274 12.4145 50.1548 12.1309C50.3694 11.9 50.4261 11.5348 50.2687 11.2608C50.3767 11.1303 50.4321 10.9639 50.4229 10.7862C50.4113 10.5643 50.3096 10.3705 50.1879 10.1911C50.2783 10.0912 50.3265 9.95192 50.3229 9.8174C50.3179 9.62239 50.2143 9.45449 50.0845 9.31545C50.1977 8.97211 50.0712 8.59967 49.7933 8.38232C49.8495 8.28971 49.8704 8.17502 49.852 8.05882C49.8199 7.85578 49.6676 7.71749 49.5032 7.60806C49.5375 7.49615 49.5285 7.37541 49.4738 7.25971C49.4007 7.10536 49.2629 7.00748 49.1191 6.92466C49.082 6.58233 48.6994 6.28994 48.3786 6.46663C48.4582 6.21189 48.229 5.93682 47.9654 5.90771C47.8364 5.51669 47.3914 5.27023 46.9913 5.36736C46.7867 5.08777 46.4059 4.98013 46.0826 5.10007C45.7272 4.82776 45.2862 4.78735 44.8703 4.92564ZM47.4022 12.6032C47.1524 12.5897 46.9652 12.7935 46.8336 12.98C46.7102 13.1549 47.0269 13.3396 47.1193 13.1469C47.1524 13.0781 47.1901 13.0053 47.2405 12.9451C47.249 12.9569 47.2565 12.9692 47.2639 12.9818L47.2714 12.9945C47.2769 13.0038 47.2827 13.0133 47.2875 13.0231C47.287 13.0249 47.2945 13.048 47.2948 13.049C47.3153 13.1115 47.3603 13.1516 47.4215 13.1732C47.5006 13.2008 47.5754 13.1413 47.6007 13.0716C47.6411 12.9601 47.5473 12.863 47.4496 12.8188C47.5455 12.8033 47.6399 12.8359 47.7092 12.9097C47.7187 12.92 47.7348 12.9117 47.7353 12.8989C47.7433 12.724 47.5603 12.6118 47.4022 12.6032Z" fill="black"/>
<path fill-rule="evenodd" clip-rule="evenodd" d="M41.925 15.2323C42.0937 15.1635 42.2443 15.0487 42.3543 14.902C42.3926 14.851 42.4025 14.7972 42.3945 14.748C42.3855 14.6926 42.3527 14.6424 42.308 14.6087C42.2632 14.575 42.2071 14.5583 42.1529 14.5668C42.1058 14.5742 42.059 14.6 42.0218 14.6534L42.0141 14.6641C41.9487 14.7527 41.8634 14.8253 41.7662 14.8721C41.6726 14.9172 41.5678 14.9383 41.4595 14.926C41.253 14.9027 41.1107 14.7911 40.9595 14.6395C40.9408 14.6204 40.922 14.6006 40.9032 14.5806C40.8913 14.5624 40.8747 14.5507 40.8564 14.5446C40.836 14.5378 40.813 14.5382 40.7919 14.5455C40.7716 14.5526 40.7534 14.5661 40.7412 14.584C40.7296 14.601 40.723 14.622 40.7251 14.6462C40.739 14.8033 40.8211 14.9435 40.9378 15.0536C41.0674 15.1758 41.2391 15.2604 41.4009 15.2901C41.579 15.3228 41.7606 15.2994 41.925 15.2323V15.2323ZM41.3168 12.8089C41.1273 12.9241 40.8385 13.1927 41.0424 13.4783C41.2824 13.7301 41.628 13.4414 41.7983 13.3108C41.9562 13.2096 42.1336 13.4699 41.9871 13.5881C40.7565 14.499 40.2571 12.839 41.2209 12.6735C41.3271 12.6552 41.3665 12.7733 41.3168 12.8089ZM43.522 11.7493C43.501 11.4893 43.1051 11.4303 43.0657 11.6875C43.0305 11.9179 43.072 12.1296 43.1758 12.337C43.275 12.5352 43.5242 12.4427 43.5431 12.2623C43.5683 12.0204 43.535 11.9109 43.522 11.7493ZM40.5082 11.6342C40.453 11.5619 40.3734 11.5126 40.2779 11.5405C39.9795 11.6276 40.0675 12.0511 40.1722 12.2572C40.2292 12.3692 40.4132 12.3975 40.4963 12.299C40.6319 12.1383 40.6968 11.8173 40.5245 11.659C40.5198 11.6508 40.5146 11.6425 40.5082 11.6342ZM43.18 10.6119L43.1329 10.6037C42.9871 10.5785 42.8058 10.5543 42.7027 10.6715C42.648 10.7336 42.6292 10.8491 42.7027 10.9086C42.832 11.0132 42.975 10.9727 43.13 10.9815C43.2577 10.9889 43.3804 11.01 43.5034 11.0452C43.7733 11.1223 43.9932 11.2631 44.2237 11.4177C44.254 11.438 44.2849 11.3993 44.2704 11.371C44.1374 11.1104 43.8795 10.8964 43.6212 10.7659C43.4833 10.6962 43.3325 10.6385 43.18 10.6119ZM40.7802 10.4952L40.7441 10.5026C40.3516 10.5846 39.8416 10.7485 39.6558 11.134C39.6487 11.1885 39.6562 11.2002 39.6623 11.2078L39.6643 11.2104C39.6693 11.2169 39.6733 11.2259 39.6969 11.2333C39.7035 11.2317 39.7101 11.2301 39.7168 11.2283C39.802 11.206 39.8694 11.1752 39.9347 11.1433L40.0054 11.1085C40.0875 11.0682 40.1704 11.0294 40.2581 11.0008C40.4454 10.9397 40.6381 10.8967 40.8337 10.8737C40.8761 10.8687 40.917 10.8544 40.9492 10.8299C40.9798 10.8066 41.0031 10.7744 41.0138 10.7315C41.0276 10.6761 41.0236 10.6341 40.9939 10.5841C40.9715 10.5465 40.9395 10.5205 40.9027 10.5056C40.8653 10.4903 40.8226 10.4867 40.7802 10.4952Z" fill="black"/>
</svg>
