<svg width="19" height="19" viewBox="0 0 19 19" fill="none" xmlns="http://www.w3.org/2000/svg">
<path d="M13.0833 13.9167H16C16.9205 13.9167 17.6667 13.1705 17.6667 12.25V5.75925C17.6667 5.10117 17.4752 4.45337 17.0134 3.98455C15.933 2.8878 13.4722 1 9.33333 1C5.19448 1 2.73368 2.8878 1.65328 3.98455C1.19145 4.45337 1 5.10117 1 5.75925V12.25C1 13.1705 1.74619 13.9167 2.66667 13.9167H5.58333M12.25 18.0833L13.5 9.75H5.16667L6.41667 18.0833L9.33333 15.1667L12.25 18.0833ZM12.25 18.0833L5.58334 11.4163M8.08333 9.75006L12.511 14.1777M6 7.25V6C6 5.53976 6.3731 5.16667 6.83333 5.16667H11.8333C12.2936 5.16667 12.6667 5.53976 12.6667 6V7.25M15.1667 9.75H3.5" stroke="#171717" stroke-width="1.4" stroke-linecap="round" stroke-linejoin="round"/>
</svg>
