<svg width="16" height="14" viewBox="0 0 16 14" fill="none" xmlns="http://www.w3.org/2000/svg">
<path d="M6.66602 5H8.66602M6.66602 7H10.666" stroke="black" stroke-width="1.4" stroke-linecap="round" stroke-linejoin="round"/>
<mask id="path-2-inside-1_2047_13201" fill="white">
<path d="M16 3.29681C16 4.1079 15.2895 4.73963 14.6576 5.24813C14.1458 5.66001 13.8184 6.29143 13.8184 7C13.8184 7.70849 14.1458 8.33954 14.6575 8.75115C15.2895 9.25949 16 9.89111 16 10.7022V11.5C16 12.3284 15.3284 13 14.5 13H1.5C0.671573 13 0 12.3284 0 11.5V10.7022C0 9.89111 0.710473 9.25949 1.34249 8.75115C1.85425 8.33954 2.18163 7.70849 2.18164 7C2.18164 6.29143 1.85422 5.66001 1.34239 5.24813C0.710494 4.73963 0 4.1079 0 3.29681V2.5C0 1.67157 0.671573 1 1.5 1H14.5C15.3284 1 16 1.67157 16 2.5V3.29681Z"/>
</mask>
<path d="M13.8184 7L12.4184 7L12.4184 7.00003L13.8184 7ZM2.18164 7L3.58164 7.00003V7H2.18164ZM1.34249 8.75115L0.465053 7.66023L1.34249 8.75115ZM14.6576 5.24813L13.7799 4.15743C12.9519 4.82376 12.4184 5.84983 12.4184 7H13.8184H15.2184C15.2184 6.73304 15.3397 6.49627 15.5353 6.33883L14.6576 5.24813ZM13.8184 7L12.4184 7.00003C12.4184 8.15023 12.952 9.17602 13.7801 9.84207L14.6575 8.75115L15.5349 7.66023C15.3395 7.50306 15.2184 7.26675 15.2184 6.99997L13.8184 7ZM16 10.7022H14.6V11.5H16H17.4V10.7022H16ZM14.5 13V11.6H1.5V13V14.4H14.5V13ZM0 11.5H1.4V10.7022H0H-1.4V11.5H0ZM1.34249 8.75115L2.21993 9.84207C3.04803 9.17602 3.58162 8.15023 3.58164 7.00003L2.18164 7L0.781641 6.99997C0.781635 7.26675 0.660472 7.50306 0.465053 7.66023L1.34249 8.75115ZM2.18164 7H3.58164C3.58164 5.84983 3.04811 4.82376 2.2201 4.15743L1.34239 5.24813L0.464678 6.33883C0.660327 6.49627 0.781641 6.73304 0.781641 7H2.18164ZM0 3.29681H1.4V2.5H0H-1.4V3.29681H0ZM1.5 1V2.4H14.5V1V-0.4H1.5V1ZM16 2.5H14.6V3.29681H16H17.4V2.5H16ZM14.5 1V2.4C14.5552 2.4 14.6 2.44477 14.6 2.5H16H17.4C17.4 0.898374 16.1016 -0.4 14.5 -0.4V1ZM0 2.5H1.4C1.4 2.44477 1.44477 2.4 1.5 2.4V1V-0.4C-0.101626 -0.4 -1.4 0.898374 -1.4 2.5H0ZM1.34239 5.24813L2.2201 4.15743C1.90899 3.90707 1.68164 3.70537 1.53025 3.51488C1.3852 3.33237 1.4 3.27183 1.4 3.29681H0H-1.4C-1.4 4.13288 -1.02995 4.79375 -0.661782 5.257C-0.29995 5.71228 0.143893 6.08068 0.464678 6.33883L1.34239 5.24813ZM1.5 13V11.6C1.44477 11.6 1.4 11.5552 1.4 11.5H0H-1.4C-1.4 13.1016 -0.101626 14.4 1.5 14.4V13ZM16 11.5H14.6C14.6 11.5552 14.5552 11.6 14.5 11.6V13V14.4C16.1016 14.4 17.4 13.1016 17.4 11.5H16ZM14.6575 8.75115L13.7801 9.84207C14.0912 10.0923 14.3185 10.2939 14.4698 10.4843C14.6148 10.6667 14.6 10.7272 14.6 10.7022H16H17.4C17.4 9.86611 17.0299 9.20525 16.6617 8.74198C16.2998 8.2867 15.8559 7.91836 15.5349 7.66023L14.6575 8.75115ZM0 10.7022H1.4C1.4 10.7272 1.38518 10.6667 1.53018 10.4843C1.68151 10.2939 1.90884 10.0923 2.21993 9.84207L1.34249 8.75115L0.465053 7.66023C0.144123 7.91836 -0.299796 8.2867 -0.661699 8.74198C-1.02995 9.20525 -1.4 9.86611 -1.4 10.7022H0ZM14.6576 5.24813L15.5353 6.33883C15.8561 6.08068 16.3 5.71228 16.6618 5.257C17.03 4.79375 17.4 4.13288 17.4 3.29681H16H14.6C14.6 3.27183 14.6148 3.33237 14.4697 3.51488C14.3184 3.70537 14.091 3.90707 13.7799 4.15743L14.6576 5.24813Z" fill="black" mask="url(#path-2-inside-1_2047_13201)"/>
<path d="M4 1.33337V12.6667" stroke="black" stroke-width="1.4" stroke-linecap="round" stroke-linejoin="round" stroke-dasharray="2 2"/>
<path d="M6.66602 9H11.666" stroke="black" stroke-width="1.4" stroke-linecap="round" stroke-linejoin="round"/>
</svg>
