<svg width="60" height="60" viewBox="0 0 60 60" fill="none" xmlns="http://www.w3.org/2000/svg">
<path d="M20.9492 30.0002L26.9742 36.0502L39.0492 23.9502" stroke="#171717" stroke-width="4" stroke-linecap="round" stroke-linejoin="round"/>
<path d="M26.8742 6.1248C28.5992 4.6498 31.4242 4.6498 33.1742 6.1248L37.1242 9.5248C37.8742 10.1748 39.2742 10.6998 40.2742 10.6998H44.5242C47.1742 10.6998 49.3492 12.8748 49.3492 15.5248V19.7748C49.3492 20.7498 49.8742 22.1748 50.5242 22.9248L53.9242 26.8748C55.3992 28.5998 55.3992 31.4248 53.9242 33.1748L50.5242 37.1248C49.8742 37.8748 49.3492 39.2748 49.3492 40.2748V44.5248C49.3492 47.1748 47.1742 49.3498 44.5242 49.3498H40.2742C39.2992 49.3498 37.8742 49.8748 37.1242 50.5248L33.1742 53.9248C31.4492 55.3998 28.6242 55.3998 26.8742 53.9248L22.9242 50.5248C22.1742 49.8748 20.7742 49.3498 19.7742 49.3498H15.4492C12.7992 49.3498 10.6242 47.1748 10.6242 44.5248V40.2498C10.6242 39.2748 10.0992 37.8748 9.47422 37.1248L6.09922 33.1498C4.64922 31.4248 4.64922 28.6248 6.09922 26.8998L9.47422 22.9248C10.0992 22.1748 10.6242 20.7748 10.6242 19.7998V15.4998C10.6242 12.8498 12.7992 10.6748 15.4492 10.6748H19.7742C20.7492 10.6748 22.1742 10.1498 22.9242 9.4998L26.8742 6.1248Z" stroke="#171717" stroke-width="4" stroke-linecap="round" stroke-linejoin="round"/>
</svg>
